<?xml version="1.0" standalone="yes"?>
<svg xmlns="http://www.w3.org/2000/svg" width="276" height="200">
<path style="fill:#ebe9e2; stroke:none;" d="M0 0L0 200L276 200L276 0L180 0L182 18L178 18L178 19C181.653 18.9856 183.355 19.1862 184 23C179.458 20.7154 176.813 21.9052 176 27L177 27L177 23L194 36L198 36L198 37C184.45 35.9307 172.362 33.7643 159 38L159 37L172 32L172 31C168.121 31 157.884 31.0022 158 36L141 34C142.487 27.1901 145.3 25.6382 152 25L152 26L150 27L155 29L155 33L156 33C156.215 22.6052 157.885 16.2403 168 12C165.605 14.9466 161.318 16.1151 159.453 19.2315C152.603 30.6788 168.291 30.5973 175 29L174 19C180.807 17.5807 178.985 5.51677 179 0L0 0z"/>
<path style="fill:#a5566c; stroke:none;" d="M179 0L179 13L180 13L179 0M174 8L171 10L171 11L175 9L174 8M169 11L170 12L169 11M156 33L155 33L155 29C153.046 29.3908 149.027 26.7433 152 26L152 25C144.92 25.2719 142.037 26.4987 141 34L158 36C157.212 32.0587 171.861 29.5555 171 33L185 32L188 36L198 37L198 36L194 36L186 33L184 27L183 29L182 29L177 23L177 28L176 28L178 21L176 22L176 21L179 20L178 17L177 17L174 19L175 29C169.147 30.0866 153.407 30.9733 159.461 20.1227C161.493 16.4804 165.847 15.7899 168 12C157.135 15.1372 156.085 22.7484 156 33M173 12L173 19L174 19L175 13L173 12z"/>
<path style="fill:#473339; stroke:none;" d="M179 13L178 18L182 18L179 13z"/>
<path style="fill:#a5566c; stroke:none;" d="M180 14L181 15L180 14M167 15L168 16L167 15M178 15L179 16L178 15z"/>
<path style="fill:#473339; stroke:none;" d="M166 16L166 18L168 16L166 16z"/>
<path style="fill:#338f5a; stroke:none;" d="M181 16L182 17L181 16z"/>
<path style="fill:#a5566c; stroke:none;" d="M165 17L166 18L165 17M167 17L168 18L167 17z"/>
<path style="fill:#473339; stroke:none;" d="M163 18L164 19L163 18z"/>
<path style="fill:#a5566c; stroke:none;" d="M168 18L169 19L168 18M182 18L184 22L182 21L182 22L184 23L182 18z"/>
<path style="fill:#338f5a; stroke:none;" d="M162 19L163 20L162 19z"/>
<path style="fill:#a5566c; stroke:none;" d="M163 19L164 20L163 19z"/>
<path style="fill:#473339; stroke:none;" d="M176 22L184 22C181.716 18.807 178.366 18.9065 176 22M163 21L163 22L167 22L163 21z"/>
<path style="fill:#a5566c; stroke:none;" d="M165 20L166 21L165 20M164 21L165 22L164 21z"/>
<path style="fill:#338f5a; stroke:none;" d="M166 22L167 23L166 22M164 23L165 24L164 23z"/>
<path style="fill:#a5566c; stroke:none;" d="M170 23L171 24L170 23M180 23L180 24L183 24L180 23M165 24L165 26L167 24L165 24M152 26L152 27L155 27L152 26M164 26L165 27L164 26M169 26L170 27L169 26M171 26L172 27L171 26z"/>
<path style="fill:#5231a6; stroke:none;" d="M178 26L179 27L178 26z"/>
<path style="fill:#473339; stroke:none;" d="M168 27L169 28L168 27M176 27L177 28L176 27M182.333 27.6667L182.667 28.3333L182.333 27.6667z"/>
<path style="fill:#a5566c; stroke:none;" d="M153 28L154 29L153 28M172 28L173 29L172 28z"/>
<path style="fill:#5231a6; stroke:none;" d="M165 35L186 35L186 34L185 32L165 35M186 32L187 33L186 32z"/>
<path style="fill:#a5566c; stroke:none;" d="M126.667 33.3333L127.333 33.6667L126.667 33.3333M167 33L168 34L167 33z"/>
<path style="fill:#473339; stroke:none;" d="M169.667 33.3333L170.333 33.6667L169.667 33.3333z"/>
<path style="fill:#5231a6; stroke:none;" d="M188.667 33.3333L189.333 33.6667L188.667 33.3333M125 35L127 37L127 38L120 39L120 42C126.756 48.5921 136.361 45.4293 134 35L130 37L129 34L125 35z"/>
<path style="fill:#a5566c; stroke:none;" d="M140 34L139 36L140 34M159 34L160 35L159 34z"/>
<path style="fill:#5231a6; stroke:none;" d="M187 34L188 35L187 34z"/>
<path style="fill:#a5566c; stroke:none;" d="M129 35L130 36L129 35M132 35L133 36L132 35M134 35L135 36L134 35M162 35L164 37L162 35z"/>
<path style="fill:#473339; stroke:none;" d="M163 35L163 36L166 36L163 35z"/>
<path style="fill:#a5566c; stroke:none;" d="M170.667 35.3333L171.333 35.6667L170.667 35.3333z"/>
<path style="fill:#338f5a; stroke:none;" d="M186.667 35.3333L187.333 35.6667L186.667 35.3333z"/>
<path style="fill:#5231a6; stroke:none;" d="M190.667 35.3333L191.333 35.6667L190.667 35.3333z"/>
<path style="fill:#a5566c; stroke:none;" d="M124 36L127 38L127 37L124 36z"/>
<path style="fill:#473339; stroke:none;" d="M134 36L135 37L134 36M137.667 36.3333L138.333 36.6667L137.667 36.3333z"/>
<path style="fill:#a5566c; stroke:none;" d="M160 36L159 38L161 38L160 36z"/>
<path style="fill:#473339; stroke:none;" d="M161.667 36.3333L162.333 36.6667L161.667 36.3333M124 37L125 38L124 37z"/>
<path style="fill:#a5566c; stroke:none;" d="M128 37L130 40L128 37M135.333 37.6667L135.667 38.3333L135.333 37.6667z"/>
<path style="fill:#473339; stroke:none;" d="M198 37L199 38L198 37z"/>
<path style="fill:#a5566c; stroke:none;" d="M199 37L200 38L199 37M121.667 38.3333L122.333 38.6667L121.667 38.3333M131 38L133 42L134 42L131 38M157 38L158 39L157 38z"/>
<path style="fill:#473339; stroke:none;" d="M200 38L201 39L200 38z"/>
<path style="fill:#a5566c; stroke:none;" d="M155 39L154 41L155 39M201 39L202 40L201 39M120 40L121 41L120 40M135 40L136 41L135 40M168 40L168 41L171 41L168 40z"/>
<path style="fill:#5231a6; stroke:none;" d="M158 43L158 44L189 41C180.848 37.5795 166.071 39.9775 158 43z"/>
<path style="fill:#a5566c; stroke:none;" d="M184 42L184 43L188 44L191 42L191 43L189 43L189 44L196 43L196 44L194 44L194 45L202 45L204 48L205 48L206 43L201 42L197 43L197 41L193 42L184 42M202 40L204 42L202 40z"/>
<path style="fill:#338f5a; stroke:none;" d="M203 40L204 41L203 40z"/>
<path style="fill:#a5566c; stroke:none;" d="M122 41L123 42L122 41M152 41L153 42L152 41M162 41L163 42L162 41z"/>
<path style="fill:#5231a6; stroke:none;" d="M193.667 41.3333L194.333 41.6667L193.667 41.3333z"/>
<path style="fill:#a5566c; stroke:none;" d="M120.667 42.3333L121.333 42.6667L120.667 42.3333M151 42L152 43L151 42M158 42L159 43L158 42z"/>
<path style="fill:#473339; stroke:none;" d="M167 42L167 43L169 43L169 44L161 46L156 43L157 46L151 45L152 48C140.408 50.013 150.115 62.3064 158 63L158 62C142.806 58.927 157.509 51.4049 165 50.3009C179.827 48.1158 193.985 49.7746 208 55L208 48L206 47L204 48L204 46L202 45C198.514 45.5811 194.195 46.2196 195 43C191.738 43.5437 189.196 45.2169 190 42L187 42L188 44L170 44L167 42z"/>
<path style="fill:#a5566c; stroke:none;" d="M170 44L180 43C176.756 41.6387 172.437 41.211 170 44z"/>
<path style="fill:#5231a6; stroke:none;" d="M190 42L191 43L190 42M197.667 42.3333L198.333 42.6667L197.667 42.3333z"/>
<path style="fill:#a5566c; stroke:none;" d="M204 42L205 43L204 42M51 43L52 44L51 43z"/>
<path style="fill:#473339; stroke:none;" d="M121 43L122 44L121 43z"/>
<path style="fill:#a5566c; stroke:none;" d="M135 43L132 45L132 46L139 48L135 43M138 43L138 44L144 48L138 43M150 43L151 44L150 43z"/>
<path style="fill:#5231a6; stroke:none;" d="M152 46L157 46L156 43L152 46z"/>
<path style="fill:#a5566c; stroke:none;" d="M166 43L166 44L169 44L166 43z"/>
<path style="fill:#5231a6; stroke:none;" d="M195 43L196 44L195 43M201 43L202 44L201 43z"/>
<path style="fill:#a5566c; stroke:none;" d="M121 44L122 45L121 44z"/>
<path style="fill:#473339; stroke:none;" d="M131 44L132 45L131 44z"/>
<path style="fill:#ebe9e2; stroke:none;" d="M135 44L136 45L135 44z"/>
<path style="fill:#338f5a; stroke:none;" d="M141 44L142 45L141 44z"/>
<path style="fill:#a5566c; stroke:none;" d="M149 44L150 45L149 44M160 44L160 46L162 44L160 44M164 44L165 45L164 44z"/>
<path style="fill:#473339; stroke:none;" d="M197 44L198 45L197 44z"/>
<path style="fill:#a5566c; stroke:none;" d="M122 45L123 46L122 45M130 45L131 46L130 45z"/>
<path style="fill:#5231a6; stroke:none;" d="M150 45L148 48L152 48L150 45z"/>
<path style="fill:#a5566c; stroke:none;" d="M158 45L159 46L158 45z"/>
<path style="fill:#338f5a; stroke:none;" d="M171 46L171 47L177 45L171 46M178.333 45.6667L178.667 46.3333L178.333 45.6667M183 45L183 47L185 47L185 45L183 45M186 45L186 47L188 45L186 45M190 45L189 47L191 47L190 45z"/>
<path style="fill:#a5566c; stroke:none;" d="M206 45L207 46L206 45M46 46L46 49L40 50L43 58L47 57L47 56L44 57L46 54L47 48L55 49L55 48L46 46z"/>
<path style="fill:#473339; stroke:none;" d="M127 46L128 47L127 46z"/>
<path style="fill:#a5566c; stroke:none;" d="M128 46L129 47L128 46z"/>
<path style="fill:#473339; stroke:none;" d="M148 46L149 47L148 46z"/>
<path style="fill:#a5566c; stroke:none;" d="M154 46L155 47L154 46z"/>
<path style="fill:#338f5a; stroke:none;" d="M168.667 46.3333L169.333 46.6667L168.667 46.3333M180.667 46.3333L181.333 46.6667L180.667 46.3333z"/>
<path style="fill:#a5566c; stroke:none;" d="M127.333 47.6667L127.667 48.3333L127.333 47.6667z"/>
<path style="fill:#338f5a; stroke:none;" d="M158 47L158 49L160 49L160 47L158 47M194 47L194 48L198 49L198 48L198 47L194 47z"/>
<path style="fill:#a5566c; stroke:none;" d="M206.333 47.6667L206.667 48.3333L206.333 47.6667M39 48L40 49L39 48M139 48L140 49L139 48M147 48L148 49L147 48z"/>
<path style="fill:#338f5a; stroke:none;" d="M199 48L200 49L199 48z"/>
<path style="fill:#a5566c; stroke:none;" d="M208 48L209 51L208 48z"/>
<path style="fill:#ebe9e2; stroke:none;" d="M44 49L42 52L44 49z"/>
<path style="fill:#a5566c; stroke:none;" d="M56 49L57 50L56 49M126 49L124 55L132 53L132 52L125 54L126 49M129 49L130 50L129 49M131 49L132 50L131 49M137 49L138 50L137 49M140 54L141 54L144 50C140.955 49.3117 140.451 51.2417 140 54z"/>
<path style="fill:#338f5a; stroke:none;" d="M144 49L145 50L144 49M147 49L148 50L147 49z"/>
<path style="fill:#a5566c; stroke:none;" d="M171 50L171 51L176 56L175 56C170.435 50.0034 159.037 54.4028 153 56L153 57L156 57L156 58L154 59C159.455 60.5468 177.268 65.3385 181 60C177.418 59.5397 177.682 56.1205 177 53L184 52L191 52L196 53L204 56L204 57L193 60L192 60L193 70L194 70L194 64C201.431 62.9017 204.259 60.4832 205 53L171 50z"/>
<path style="fill:#338f5a; stroke:none;" d="M202 49L203 50L202 49z"/>
<path style="fill:#a5566c; stroke:none;" d="M58 50L61 53L58 50z"/>
<path style="fill:#473339; stroke:none;" d="M128.333 50.6667L128.667 51.3333L128.333 50.6667z"/>
<path style="fill:#a5566c; stroke:none;" d="M130 50L131 51L130 50M132 50L132 51L137 52L137 51L132 50M138 50L138 55L139 55L138 50z"/>
<path style="fill:#338f5a; stroke:none;" d="M149 50L150 51L149 50z"/>
<path style="fill:#5231a6; stroke:none;" d="M186 63L186 62L154 59L156 58L156 57L153 57L153 56L175 53C169.569 48.3176 162.18 50.3287 156.001 52.5108C153.675 53.3322 149.496 54.6122 150.497 57.9352C153.517 67.964 178.688 63 186 63z"/>
<path style="fill:#a5566c; stroke:none;" d="M169 50L170 51L169 50z"/>
<path style="fill:#338f5a; stroke:none;" d="M204 50L205 51L204 50z"/>
<path style="fill:#a5566c; stroke:none;" d="M47 51L47 52L51 52L47 51M52 51L54 54L52 51z"/>
<path style="fill:#473339; stroke:none;" d="M125 51L126 52L125 51z"/>
<path style="fill:#a5566c; stroke:none;" d="M142 51L142 54L144 54L144 51L142 51z"/>
<path style="fill:#473339; stroke:none;" d="M44 52L45 53L44 52z"/>
<path style="fill:#ebe9e2; stroke:none;" d="M143 52L144 53L143 52z"/>
<path style="fill:#338f5a; stroke:none;" d="M144 52L145 53L144 52z"/>
<path style="fill:#473339; stroke:none;" d="M183 52L184 53L183 52z"/>
<path style="fill:#5231a6; stroke:none;" d="M190 52L191 53L190 52z"/>
<path style="fill:#a5566c; stroke:none;" d="M39 53L35 62L41 63L41 62L38 61L39 57L40 57L41 60L42 60L39 53z"/>
<path style="fill:#ebe9e2; stroke:none;" d="M43 53L44 54L43 53z"/>
<path style="fill:#a5566c; stroke:none;" d="M47 54L47 55L52 56L47 54M62 53L63 54L62 53z"/>
<path style="fill:#ebe9e2; stroke:none;" d="M128 54L130 61L134 62L130 66L133 67L131 73C140.99 71.958 137.636 64.5249 139 57L136 62L135 62L136 57L132 56L132 55L134 54L128 54z"/>
<path style="fill:#338f5a; stroke:none;" d="M132 53L133 54L132 53z"/>
<path style="fill:#a5566c; stroke:none;" d="M133 53L135 55L135 53L133 53z"/>
<path style="fill:#473339; stroke:none;" d="M135 53L136 60L137 60L138 56L139 56L141 72L142 72L149 69L135 53z"/>
<path style="fill:#a5566c; stroke:none;" d="M148.667 53.3333L149.333 53.6667L148.667 53.3333z"/>
<path style="fill:#ebe9e2; stroke:none;" d="M172 53L172 54L175 56C175.951 53.4934 174.348 53.2942 172 53z"/>
<path style="fill:#5231a6; stroke:none;" d="M195 53L196 54L195 53z"/>
<path style="fill:#338f5a; stroke:none;" d="M126 54L125 58L129 58L129 59L126 60L126 62L131 62L128 54L126 54M130 54L133 59L132 54L130 54M143 54L143 56L145 54L143 54z"/>
<path style="fill:#a5566c; stroke:none;" d="M178 54L179 55L178 54M181 54L182 55L181 54M187 54L188 55L187 54M206 54L207 55L206 54M36 55L32 67L33 67L33 60L36 55M53 57L54 58L56 55L53 57z"/>
<path style="fill:#338f5a; stroke:none;" d="M132 55L132 56L135 56L132 55z"/>
<path style="fill:#a5566c; stroke:none;" d="M140 57L143 57L142 55L140 57M182.333 55.6667L182.667 56.3333L182.333 55.6667z"/>
<path style="fill:#473339; stroke:none;" d="M183 55L184 56L183 55z"/>
<path style="fill:#a5566c; stroke:none;" d="M184.333 55.6667L184.667 56.3333L184.333 55.6667M188 55L189 56L188 55M138 56L139 57L138 56M189 56L190 57L189 56z"/>
<path style="fill:#5231a6; stroke:none;" d="M203 56L204 57L203 56z"/>
<path style="fill:#473339; stroke:none;" d="M39.3333 57.6667L39.6667 58.3333L39.3333 57.6667z"/>
<path style="fill:#a5566c; stroke:none;" d="M65 57L69 61L65 57z"/>
<path style="fill:#473339; stroke:none;" d="M132.667 57.3333L133.333 57.6667L132.667 57.3333z"/>
<path style="fill:#338f5a; stroke:none;" d="M143 57L142 59L144 59L143 57z"/>
<path style="fill:#a5566c; stroke:none;" d="M185 57L186 58L185 57M190 57L191 58L190 57M46 58L46 63L42 62L42 63L51 66L50 61L49 61L47 63L46 58M48 58L49 59L48 58M56 58L56 59L64 67L61 60L56 58z"/>
<path style="fill:#5231a6; stroke:none;" d="M126 58L127 59L126 58z"/>
<path style="fill:#473339; stroke:none;" d="M127 58L128 59L127 58z"/>
<path style="fill:#5231a6; stroke:none;" d="M128 58L129 59L128 58M156 58L157 59L156 58z"/>
<path style="fill:#a5566c; stroke:none;" d="M182 58L181 60L183 60L182 58M186 58L187 59L186 58M191.333 58.6667L191.667 59.3333L191.333 58.6667z"/>
<path style="fill:#338f5a; stroke:none;" d="M207 58L206 60L207 58z"/>
<path style="fill:#a5566c; stroke:none;" d="M39 59L40 60L39 59z"/>
<path style="fill:#473339; stroke:none;" d="M126 59L127 60L126 59z"/>
<path style="fill:#338f5a; stroke:none;" d="M135.333 59.6667L135.667 60.3333L135.333 59.6667M147 59L148 60L147 59z"/>
<path style="fill:#a5566c; stroke:none;" d="M187 59L188 60L187 59z"/>
<path style="fill:#338f5a; stroke:none;" d="M131 60L132 61L131 60z"/>
<path style="fill:#a5566c; stroke:none;" d="M148 60L149 61L148 60M188 60L174 63L174 64L190 65L188 60z"/>
<path style="fill:#338f5a; stroke:none;" d="M204 60L205 61L204 60z"/>
<path style="fill:#5231a6; stroke:none;" d="M135 61L136 62L135 61z"/>
<path style="fill:#a5566c; stroke:none;" d="M150 61L151 62L150 61z"/>
<path style="fill:#ebe9e2; stroke:none;" d="M177 61L178 62L177 61z"/>
<path style="fill:#473339; stroke:none;" d="M193 61L194 62L193 61z"/>
<path style="fill:#ebe9e2; stroke:none;" d="M37 62L38 63L37 62z"/>
<path style="fill:#473339; stroke:none;" d="M126 62L124 74L128 72L131.806 92.9961L126.546 101.17L124 118L125 118C126.318 115.904 132.383 109.22 133 114L134 114L139 109L140 114L141 114C140.461 110.768 139.102 109.275 142 110L144 88L143 88L142 100L140 103L135 99L137 104L134 104L135 101L130 102L134 100L133 95L135 96L141 73L140 73L134 92L133 92L129 72C135.672 70.5704 128.651 64.2851 126 62z"/>
<path style="fill:#a5566c; stroke:none;" d="M130.667 62.3333L131.333 62.6667L130.667 62.3333z"/>
<path style="fill:#5231a6; stroke:none;" d="M132 62L133 63L132 62z"/>
<path style="fill:#338f5a; stroke:none;" d="M133 62L134 63L133 62M144 62L145 63L144 62z"/>
<path style="fill:#a5566c; stroke:none;" d="M153 62L154 63L153 62z"/>
<path style="fill:#473339; stroke:none;" d="M37 63L38 64L37 63z"/>
<path style="fill:#ebe9e2; stroke:none;" d="M46 63L47 64L46 63z"/>
<path style="fill:#a5566c; stroke:none;" d="M70 63L71 64L70 63z"/>
<path style="fill:#5231a6; stroke:none;" d="M127 63L128 64L127 63z"/>
<path style="fill:#ebe9e2; stroke:none;" d="M128 63L129 64L128 63z"/>
<path style="fill:#473339; stroke:none;" d="M129 63L129 64L133 64L129 63z"/>
<path style="fill:#338f5a; stroke:none;" d="M137 63L138 64L137 63z"/>
<path style="fill:#a5566c; stroke:none;" d="M158.667 63.3333L159.333 63.6667L158.667 63.3333z"/>
<path style="fill:#473339; stroke:none;" d="M161 63L161 64L165 64L161 63z"/>
<path style="fill:#a5566c; stroke:none;" d="M30 64L29 67L30 64M36 65L36 66L41 66L36 65z"/>
<path style="fill:#473339; stroke:none;" d="M50 64L51 65L50 64z"/>
<path style="fill:#a5566c; stroke:none;" d="M52 64L53 68L50 67L53 70L52 64z"/>
<path style="fill:#338f5a; stroke:none;" d="M128 64L130 66L130 64L128 64z"/>
<path style="fill:#5231a6; stroke:none;" d="M130 64L131 65L130 64z"/>
<path style="fill:#a5566c; stroke:none;" d="M131 64L132 65L131 64z"/>
<path style="fill:#338f5a; stroke:none;" d="M136 64L133 66L133 67L136 64z"/>
<path style="fill:#a5566c; stroke:none;" d="M165 64L165 65L173 65L165 64z"/>
<path style="fill:#473339; stroke:none;" d="M173 64L173 65L185 65L173 64M29 65L30 66L29 65z"/>
<path style="fill:#338f5a; stroke:none;" d="M138 65L139 66L138 65M146 65L147 66L146 65z"/>
<path style="fill:#a5566c; stroke:none;" d="M190 65L190 68L191 68L190 65z"/>
<path style="fill:#473339; stroke:none;" d="M33 66L34 67L33 66M49 66L50 67L49 66z"/>
<path style="fill:#a5566c; stroke:none;" d="M54 66L55 67L54 66M72 66L74 69L72 66z"/>
<path style="fill:#338f5a; stroke:none;" d="M130 66L131 67L130 66z"/>
<path style="fill:#5231a6; stroke:none;" d="M139 66L140 67L139 66z"/>
<path style="fill:#a5566c; stroke:none;" d="M150 66L149 69L140 72L140 71L141 68L140 68L129 75L136 77L140 72L135 96L133 95L134 100L130 102L135 101L134 104L137 104L135 99L140 103L142 100L143 88L144 88L144 92L145 92L146 85L144 81L156 73L155 70L150 72L153 67L152 67L152 69L150 66M27 67L24 70L24 71L27 67z"/>
<path style="fill:#473339; stroke:none;" d="M30 67L31 68L30 67z"/>
<path style="fill:#a5566c; stroke:none;" d="M40.3333 67.6667L40.6667 68.3333L40.3333 67.6667M42 67L43 68L42 67z"/>
<path style="fill:#473339; stroke:none;" d="M51 67L52 68L51 67z"/>
<path style="fill:#ebe9e2; stroke:none;" d="M52 67L53 68L52 67z"/>
<path style="fill:#338f5a; stroke:none;" d="M132 67L132 70L133 70L132 67z"/>
<path style="fill:#a5566c; stroke:none;" d="M31 70L39 69L31 70M55.3333 68.6667L55.6667 69.3333L55.3333 68.6667M64 68L72 79L70 84L76 79L76 78L70 78L72 75L69 76L64 68z"/>
<path style="fill:#338f5a; stroke:none;" d="M139 68L140 69L139 68z"/>
<path style="fill:#473339; stroke:none;" d="M40 69L41 70L40 69z"/>
<path style="fill:#a5566c; stroke:none;" d="M44 69L45 70L44 69M123 69L125 71L125 69L123 69z"/>
<path style="fill:#473339; stroke:none;" d="M139 69L140 70L139 69z"/>
<path style="fill:#ebe9e2; stroke:none;" d="M141 69L142 70L141 69z"/>
<path style="fill:#a5566c; stroke:none;" d="M189.333 69.6667L189.667 70.3333L189.333 69.6667z"/>
<path style="fill:#338f5a; stroke:none;" d="M22 70L23 71L22 70z"/>
<path style="fill:#473339; stroke:none;" d="M23 70L24 71L23 70z"/>
<path style="fill:#a5566c; stroke:none;" d="M41 70L42 71L41 70M43 70L42 72L44 72L43 70M53.6667 70.3333L54.3333 70.6667L53.6667 70.3333M74 70L75 71L74 70z"/>
<path style="fill:#338f5a; stroke:none;" d="M138 70L139 71L138 70z"/>
<path style="fill:#473339; stroke:none;" d="M27.6667 71.3333L28.3333 71.6667L27.6667 71.3333z"/>
<path style="fill:#338f5a; stroke:none;" d="M31 71L32 72L31 71z"/>
<path style="fill:#a5566c; stroke:none;" d="M32 71L32 72L36 73L32 71z"/>
<path style="fill:#473339; stroke:none;" d="M54 71L55 72L54 71z"/>
<path style="fill:#a5566c; stroke:none;" d="M56 71L55 74L56 71M122 71L121 74L121 75L124 71L122 71z"/>
<path style="fill:#338f5a; stroke:none;" d="M137 71L138 72L137 71z"/>
<path style="fill:#ebe9e2; stroke:none;" d="M140 71L141 72L140 71z"/>
<path style="fill:#473339; stroke:none;" d="M22 72L23 73L22 72z"/>
<path style="fill:#a5566c; stroke:none;" d="M23.6667 72.3333L24.3333 72.6667L23.6667 72.3333M26 72L27 77L27 78L36 84L32 76L31 76L31 78L30 78L30 72L26 72M44 72L45 73L44 72M46 72L47 75L46 72M75 72L76 75L77 75L75 72z"/>
<path style="fill:#473339; stroke:none;" d="M121 72L120 74L121 72z"/>
<path style="fill:#ebe9e2; stroke:none;" d="M123 72L124 73L123 72z"/>
<path style="fill:#a5566c; stroke:none;" d="M127 72L128 73L127 72z"/>
<path style="fill:#338f5a; stroke:none;" d="M132 72L133 73L132 72z"/>
<path style="fill:#ebe9e2; stroke:none;" d="M139 72L131 77L131 74L130 74L133 90C137.107 87.1349 139.865 76.829 139 72M149 72L150 73L149 72z"/>
<path style="fill:#a5566c; stroke:none;" d="M192 72L193 73L192 72z"/>
<path style="fill:#338f5a; stroke:none;" d="M24 73L25 74L24 73z"/>
<path style="fill:#a5566c; stroke:none;" d="M36 73L37 74L36 73z"/>
<path style="fill:#ebe9e2; stroke:none;" d="M121.667 73.3333L122.333 73.6667L121.667 73.3333z"/>
<path style="fill:#338f5a; stroke:none;" d="M125 73L126 76L127 76L127 73L125 73z"/>
<path style="fill:#ebe9e2; stroke:none;" d="M147 84L147 85L143 99L149 97L149 98L145 102L147 100L150 101L151 97L152 97L152 99L153 99L149 84L150 84L151 88L155 86L155 82L156 82L159 87L159 86L155 73C150.653 73.8662 142.132 78.7698 147 84z"/>
<path style="fill:#338f5a; stroke:none;" d="M155.333 73.6667L155.667 74.3333L155.333 73.6667z"/>
<path style="fill:#a5566c; stroke:none;" d="M187 73L186 75L187 73M23 74L24 75L23 74z"/>
<path style="fill:#473339; stroke:none;" d="M29 74L30 75L29 74z"/>
<path style="fill:#a5566c; stroke:none;" d="M56 74L57 75L56 74z"/>
<path style="fill:#338f5a; stroke:none;" d="M131 74L132 75L131 74M136 74L137 75L136 74z"/>
<path style="fill:#a5566c; stroke:none;" d="M191 74L189 77L191 74M25.3333 75.6667L25.6667 76.3333L25.3333 75.6667z"/>
<path style="fill:#473339; stroke:none;" d="M28.3333 75.6667L28.6667 76.3333L28.3333 75.6667M30 75L30 78L31 78L30 75z"/>
<path style="fill:#a5566c; stroke:none;" d="M34 75L36 79L39 79L39 75L38 75L37 78L36 78L34 75M48 75L49 76L48 75M57 75L58 76L57 75M59 75L60 76L59 75z"/>
<path style="fill:#338f5a; stroke:none;" d="M132 75L132 77L134 77L132 75M137 75L138 76L137 75z"/>
<path style="fill:#473339; stroke:none;" d="M146 75L147 76L146 75z"/>
<path style="fill:#338f5a; stroke:none;" d="M156 75L156 80L157 80L156 75z"/>
<path style="fill:#a5566c; stroke:none;" d="M184 75L185 76L184 75M22.6667 76.3333L23.3333 76.6667L22.6667 76.3333M58 76L59 77L58 76z"/>
<path style="fill:#338f5a; stroke:none;" d="M122 76L123 77L122 76z"/>
<path style="fill:#a5566c; stroke:none;" d="M128 76L129 77L128 76M131 76L132 77L131 76M138 76L139 77L138 76M182 76L183 77L182 76M24 77L25 78L24 77M48.6667 77.3333L49.3333 77.6667L48.6667 77.3333M59.3333 77.6667L59.6667 78.3333L59.3333 77.6667M77 77L80 80L77 77z"/>
<path style="fill:#338f5a; stroke:none;" d="M110 77C107.948 83.6479 109.539 87.1904 113 93C117.862 89.5687 117.69 86.5848 117 81L116 81L115 83L110 77M121 77C121.11 81.5537 121.726 84.8202 126 87L126 88L119 92L120 92L120 90L121 90L118 96L114 96L114 98C119.87 101.334 126.818 101.756 123 93L125 93L123 89C126.111 90.5212 126.042 91.8216 125 95L128 94L128 98L129 98L126 88L131 87L131 92L132 92L131 85L122 83L121 77M127 77L128 78L127 77z"/>
<path style="fill:#ebe9e2; stroke:none;" d="M128 77L129 78L128 77z"/>
<path style="fill:#a5566c; stroke:none;" d="M187 77L188 78L187 77M25 78L24 82L27 79L25 78z"/>
<path style="fill:#473339; stroke:none;" d="M26 78L27 79L26 78z"/>
<path style="fill:#ebe9e2; stroke:none;" d="M27.3333 78.6667L27.6667 79.3333L27.3333 78.6667z"/>
<path style="fill:#473339; stroke:none;" d="M29 78L30 79L29 78M32 78L33 79L32 78z"/>
<path style="fill:#a5566c; stroke:none;" d="M40 78L41 79L40 78z"/>
<path style="fill:#ebe9e2; stroke:none;" d="M72.6667 78.3333L73.3333 78.6667L72.6667 78.3333z"/>
<path style="fill:#338f5a; stroke:none;" d="M131.667 78.3333L132.333 78.6667L131.667 78.3333z"/>
<path style="fill:#a5566c; stroke:none;" d="M135 78L136 79L135 78z"/>
<path style="fill:#338f5a; stroke:none;" d="M136 78L137 79L136 78z"/>
<path style="fill:#a5566c; stroke:none;" d="M185 78L186 79L185 78z"/>
<path style="fill:#338f5a; stroke:none;" d="M186 78L187 79L186 78z"/>
<path style="fill:#473339; stroke:none;" d="M25 79L26 80L25 79M38 79L39 80L38 79z"/>
<path style="fill:#a5566c; stroke:none;" d="M41 79L38 82L38 83L41 86L42 86L41 79M50 79L53 82L50 79M60 79L61 80L60 79z"/>
<path style="fill:#ebe9e2; stroke:none;" d="M111 79L112 80L111 79z"/>
<path style="fill:#338f5a; stroke:none;" d="M130 79L131 80L130 79M135 79L136 80L135 79z"/>
<path style="fill:#473339; stroke:none;" d="M145 79L146 80L145 79z"/>
<path style="fill:#a5566c; stroke:none;" d="M181 81L184 80L181 81z"/>
<path style="fill:#473339; stroke:none;" d="M27 80L27 82L29 80L27 80z"/>
<path style="fill:#a5566c; stroke:none;" d="M38.6667 80.3333L39.3333 80.6667L38.6667 80.3333M43 80L44 81L43 80M81 80L82 81L81 80M83 80L84 81L83 80z"/>
<path style="fill:#338f5a; stroke:none;" d="M133.667 80.3333L134.333 80.6667L133.667 80.3333M148 80L148 84L149 84L148 80z"/>
<path style="fill:#a5566c; stroke:none;" d="M156 80L159 83L156 80z"/>
<path style="fill:#473339; stroke:none;" d="M34 81L35 82L34 81z"/>
<path style="fill:#ebe9e2; stroke:none;" d="M41 81L42 82L41 81z"/>
<path style="fill:#a5566c; stroke:none;" d="M61 81L66 87L68 84L68 83C65.5249 83.513 65.4254 83.6038 66 86L61 81M63.6667 81.3333L64.3333 81.6667L63.6667 81.3333z"/>
<path style="fill:#473339; stroke:none;" d="M65 81L66 82L65 81z"/>
<path style="fill:#ebe9e2; stroke:none;" d="M113 81L112 83L113 81z"/>
<path style="fill:#338f5a; stroke:none;" d="M129 81L129 84L130 84L129 81z"/>
<path style="fill:#a5566c; stroke:none;" d="M137 81L138 82L137 81z"/>
<path style="fill:#473339; stroke:none;" d="M144 81L144 84L145 84L144 81z"/>
<path style="fill:#a5566c; stroke:none;" d="M26 82L28 85L28 82L26 82z"/>
<path style="fill:#473339; stroke:none;" d="M33 82L34 83L33 82z"/>
<path style="fill:#a5566c; stroke:none;" d="M43 82L43 87L44 87L43 82M86 82L87 83L86 82z"/>
<path style="fill:#473339; stroke:none;" d="M115 82L116 83L115 82z"/>
<path style="fill:#338f5a; stroke:none;" d="M118 82L119 83L118 82M155 82L156 83L155 82z"/>
<path style="fill:#473339; stroke:none;" d="M175 94L184 94L184 93L177 92L181 85L182 91L183 91L184 83C174.118 80.1117 176.577 87.137 175 94z"/>
<path style="fill:#a5566c; stroke:none;" d="M183 82L184 83L183 82M37 83L38 84L37 83M53 83L55 87L56 87L53 83M88 83L89 84L88 83M90 83L91 84L90 83M105 83L106 84L105 83z"/>
<path style="fill:#ebe9e2; stroke:none;" d="M114 83L115 84L114 83z"/>
<path style="fill:#a5566c; stroke:none;" d="M120 83L120 89L121 89L124 87L120 83z"/>
<path style="fill:#ebe9e2; stroke:none;" d="M121 83L122 84L121 83z"/>
<path style="fill:#a5566c; stroke:none;" d="M155 83C154.202 85.6767 154.119 86.5402 157 87L155 83z"/>
<path style="fill:#473339; stroke:none;" d="M157 83L157 85L159 85L159 83L157 83z"/>
<path style="fill:#a5566c; stroke:none;" d="M23.3333 84.6667L23.6667 85.3333L23.3333 84.6667z"/>
<path style="fill:#473339; stroke:none;" d="M26 84L26 88L27 88L26 84M34.6667 84.3333L35.3333 84.6667L34.6667 84.3333M64 84L65 85L64 84z"/>
<path style="fill:#338f5a; stroke:none;" d="M68.6667 84.3333L69.3333 84.6667L68.6667 84.3333M73 84L76 86L76 85L73 84z"/>
<path style="fill:#a5566c; stroke:none;" d="M96 84L96 85L100 85L96 84z"/>
<path style="fill:#ebe9e2; stroke:none;" d="M111 84L112 85L111 84z"/>
<path style="fill:#5231a6; stroke:none;" d="M113 84L112 86L113 84z"/>
<path style="fill:#473339; stroke:none;" d="M120 84L121 85L120 84z"/>
<path style="fill:#338f5a; stroke:none;" d="M133 84L135 86L133 84z"/>
<path style="fill:#a5566c; stroke:none;" d="M136.333 84.6667L136.667 85.3333L136.333 84.6667z"/>
<path style="fill:#338f5a; stroke:none;" d="M146 84L147 85L146 84M149 84L151 87L149 84z"/>
<path style="fill:#a5566c; stroke:none;" d="M34 85L34 87L36 87L36 85L34 85z"/>
<path style="fill:#ebe9e2; stroke:none;" d="M64.6667 85.3333L65.3333 85.6667L64.6667 85.3333z"/>
<path style="fill:#a5566c; stroke:none;" d="M76 85L77 86L76 85z"/>
<path style="fill:#338f5a; stroke:none;" d="M113 85L114 86L113 85z"/>
<path style="fill:#ebe9e2; stroke:none;" d="M114 85L115 86L114 85M116 85L115 89L116 85z"/>
<path style="fill:#473339; stroke:none;" d="M121 85L122 86L121 85z"/>
<path style="fill:#ebe9e2; stroke:none;" d="M123 85L124 86L123 85z"/>
<path style="fill:#338f5a; stroke:none;" d="M132 85L133 86L132 85z"/>
<path style="fill:#473339; stroke:none;" d="M144 85L145 86L144 85z"/>
<path style="fill:#338f5a; stroke:none;" d="M152.667 85.3333L153.333 85.6667L152.667 85.3333z"/>
<path style="fill:#a5566c; stroke:none;" d="M157 85L157 86L160 87L157 85M177 92L183 92L181 85C177.424 86.4367 177.123 88.2864 177 92M183 85L184 86L183 85M45 86L46 87L45 86M77.6667 86.3333L78.3333 86.6667L77.6667 86.3333z"/>
<path style="fill:#ebe9e2; stroke:none;" d="M110 86L111 87L110 86M112.667 86.3333L113.333 86.6667L112.667 86.3333z"/>
<path style="fill:#a5566c; stroke:none;" d="M151 86L152 87L151 86M25 87L22 89L25 95L32 98L33 91L33 90L26 93L25 87z"/>
<path style="fill:#473339; stroke:none;" d="M34 87L34 90L35 90L34 87z"/>
<path style="fill:#a5566c; stroke:none;" d="M41 87L42 88L41 87M44 87L45 88L44 87M75 87L74 89L75 87z"/>
<path style="fill:#338f5a; stroke:none;" d="M79.6667 87.3333L80.3333 87.6667L79.6667 87.3333z"/>
<path style="fill:#ebe9e2; stroke:none;" d="M111 87L112 88L111 87M121 87L122 88L121 87M123.667 87.3333L124.333 87.6667L123.667 87.3333z"/>
<path style="fill:#473339; stroke:none;" d="M125 87L126 88L125 87z"/>
<path style="fill:#ebe9e2; stroke:none;" d="M130 87L127 88L129 98C132.698 94.7209 132.079 91.2331 130 87z"/>
<path style="fill:#338f5a; stroke:none;" d="M133.333 87.6667L133.667 88.3333L133.333 87.6667z"/>
<path style="fill:#a5566c; stroke:none;" d="M150 87L151 88L150 87z"/>
<path style="fill:#338f5a; stroke:none;" d="M152.667 87.3333L153.333 87.6667L152.667 87.3333z"/>
<path style="fill:#a5566c; stroke:none;" d="M157.667 87.3333L158.333 87.6667L157.667 87.3333M56 88L61 95L62 91L59 92L56 88M65 88L65 91L66 91L65 88M77 88L76 90L77 88M82.6667 88.3333L83.3333 88.6667L82.6667 88.3333M101 88L101 89L105 89L101 88M106.667 88.3333L107.333 88.6667L106.667 88.3333z"/>
<path style="fill:#338f5a; stroke:none;" d="M108 88L109 89L108 88z"/>
<path style="fill:#5231a6; stroke:none;" d="M114 88L115 89L114 88z"/>
<path style="fill:#ebe9e2; stroke:none;" d="M122 88L123 89L122 88z"/>
<path style="fill:#5231a6; stroke:none;" d="M126 88L127 89L126 88z"/>
<path style="fill:#338f5a; stroke:none;" d="M150 88L153 92L150 88z"/>
<path style="fill:#473339; stroke:none;" d="M23 89L24 90L23 89z"/>
<path style="fill:#a5566c; stroke:none;" d="M35 89L36 92L35 89z"/>
<path style="fill:#473339; stroke:none;" d="M42 89L43 90L42 89z"/>
<path style="fill:#a5566c; stroke:none;" d="M44 89L45 90L44 89M48 89L46 90L46 91L48 89M60 89L61 90L60 89z"/>
<path style="fill:#338f5a; stroke:none;" d="M78 89L79 90L78 89z"/>
<path style="fill:#a5566c; stroke:none;" d="M85 89L86 90L85 89M87.3333 89.6667L87.6667 90.3333L87.3333 89.6667M89 89L90 90L89 89z"/>
<path style="fill:#338f5a; stroke:none;" d="M90.6667 89.3333L91.3333 89.6667L90.6667 89.3333z"/>
<path style="fill:#a5566c; stroke:none;" d="M92.6667 89.3333L93.3333 89.6667L92.6667 89.3333z"/>
<path style="fill:#338f5a; stroke:none;" d="M94 89L95 90L94 89M96 89L97 90L96 89z"/>
<path style="fill:#a5566c; stroke:none;" d="M97 89L97 90L100 90L97 89z"/>
<path style="fill:#473339; stroke:none;" d="M117.667 89.3333L118.333 89.6667L117.667 89.3333z"/>
<path style="fill:#a5566c; stroke:none;" d="M119 89L120 90L119 89z"/>
<path style="fill:#ebe9e2; stroke:none;" d="M121 89L123 91L121 89M123 89L125 93L123 93L124 96L125 96C126.16 92.559 126.978 90.1311 123 89z"/>
<path style="fill:#338f5a; stroke:none;" d="M159 89L160 94L161 94L159 89z"/>
<path style="fill:#473339; stroke:none;" d="M25 90L24 92L25 90M59 90L60 91L59 90z"/>
<path style="fill:#a5566c; stroke:none;" d="M73 90L75 92L75 90L73 90z"/>
<path style="fill:#ebe9e2; stroke:none;" d="M113 90L114 91L113 90M114 91L114 92L118 93L119 91L114 91M120 90L119 95L120 95L120 90z"/>
<path style="fill:#a5566c; stroke:none;" d="M133.333 90.6667L133.667 91.3333L133.333 90.6667z"/>
<path style="fill:#473339; stroke:none;" d="M22 91L23 92L22 91M26 93L29 92L26 93z"/>
<path style="fill:#a5566c; stroke:none;" d="M43.6667 91.3333L44.3333 91.6667L43.6667 91.3333M76.6667 91.3333L77.3333 91.6667L76.6667 91.3333z"/>
<path style="fill:#473339; stroke:none;" d="M82 91L83 92L82 91z"/>
<path style="fill:#a5566c; stroke:none;" d="M83.6667 91.3333L84.3333 91.6667L83.6667 91.3333M117 91L118 93L117 93L113 95L114 95L115 93L118 95L117 91z"/>
<path style="fill:#338f5a; stroke:none;" d="M129 91L130 92L129 91z"/>
<path style="fill:#473339; stroke:none;" d="M30.3333 92.6667L30.6667 93.3333L30.3333 92.6667z"/>
<path style="fill:#a5566c; stroke:none;" d="M33 92L34 93L33 92M36.3333 92.6667L36.6667 93.3333L36.3333 92.6667M46 92L46 95L47 95L46 92M64 92L62 93L62 94L64 92M66 92L68 94L66 92M82 92L81 94L83 94L82 92M87 92L88 93L87 92z"/>
<path style="fill:#473339; stroke:none;" d="M88 92L87 95L88 92M119.333 92.6667L119.667 93.3333L119.333 92.6667M127 92L128 93L127 92z"/>
<path style="fill:#338f5a; stroke:none;" d="M150 92L149 97L150 97L150 92M153.333 92.6667L153.667 93.3333L153.333 92.6667z"/>
<path style="fill:#a5566c; stroke:none;" d="M175 92L176 93L175 92z"/>
<path style="fill:#ebe9e2; stroke:none;" d="M114 93L114 95L116 95L114 93z"/>
<path style="fill:#338f5a; stroke:none;" d="M130 93L131 94L130 93z"/>
<path style="fill:#a5566c; stroke:none;" d="M132 93L133 94L132 93M48 94L46 100L56 100L55 98L59 99L59 98L53 98L53 97L56 96L56 95L48 94M69 94L69 95L74 96L69 94z"/>
<path style="fill:#338f5a; stroke:none;" d="M81 94L82 95L81 94z"/>
<path style="fill:#a5566c; stroke:none;" d="M84.6667 94.3333L85.3333 94.6667L84.6667 94.3333z"/>
<path style="fill:#ebe9e2; stroke:none;" d="M122 94L123 95L122 94M126 94L127 98L128 98L126 94z"/>
<path style="fill:#a5566c; stroke:none;" d="M143 94L144 95L143 94z"/>
<path style="fill:#338f5a; stroke:none;" d="M154.333 94.6667L154.667 95.3333L154.333 94.6667M174 97L178 99L177 102L185 104L182 94L182 97C179.03 94.1992 176.571 93.4474 174 97z"/>
<path style="fill:#ebe9e2; stroke:none;" d="M180 94L182 97L180 94z"/>
<path style="fill:#a5566c; stroke:none;" d="M21 95L22 96L21 95z"/>
<path style="fill:#473339; stroke:none;" d="M30 95L31 96L30 95z"/>
<path style="fill:#338f5a; stroke:none;" d="M45.3333 95.6667L45.6667 96.3333L45.3333 95.6667z"/>
<path style="fill:#a5566c; stroke:none;" d="M67 95L66 101L59 102C59 105.729 55.6388 103.285 53 103L53 104L57 106C50.7183 109.207 44.5912 114.492 40.1674 120C38.2569 122.379 37.0704 127.624 42.0201 126.94C51.4662 125.634 56.3072 107.381 67 110L67 108L68 108L68 110L69 110C68.487 107.525 68.3962 107.425 66 108L66 103L63 103C66.1629 100.966 68.8987 98.7754 67 95M75 95L76 98L80 96L80 95L75 95M89 95L88 98L89 95z"/>
<path style="fill:#473339; stroke:none;" d="M114 95L115 96L114 95z"/>
<path style="fill:#ebe9e2; stroke:none;" d="M117 95L118 96L117 95z"/>
<path style="fill:#473339; stroke:none;" d="M125 95L126 96L125 95z"/>
<path style="fill:#338f5a; stroke:none;" d="M160 95L160 103L161 103L160 95z"/>
<path style="fill:#ebe9e2; stroke:none;" d="M52 96L52 99L53 99L52 96z"/>
<path style="fill:#a5566c; stroke:none;" d="M60.3333 96.6667L60.6667 97.3333L60.3333 96.6667M84 96L85 97L84 96M101 96L101 97L106 97L101 96z"/>
<path style="fill:#ebe9e2; stroke:none;" d="M115 96L116 97L115 96z"/>
<path style="fill:#338f5a; stroke:none;" d="M126 96L127 97L126 96z"/>
<path style="fill:#a5566c; stroke:none;" d="M150 96L151 97L150 96z"/>
<path style="fill:#338f5a; stroke:none;" d="M153 96L151 101L153 100L153 101C147.122 102.115 142.064 102.052 141 109L145 112L151 114L155 113L153 96z"/>
<path style="fill:#a5566c; stroke:none;" d="M24 97L23 100L24 97z"/>
<path style="fill:#473339; stroke:none;" d="M30 97L31 98L30 97M32 97L31 98L35 101L32 97z"/>
<path style="fill:#a5566c; stroke:none;" d="M45 97L46 98L45 97z"/>
<path style="fill:#ebe9e2; stroke:none;" d="M48 97L49 98L48 97z"/>
<path style="fill:#a5566c; stroke:none;" d="M93 97L94 98L93 97M95 97L96 98L95 97M97.6667 97.3333L98.3333 97.6667L97.6667 97.3333M109.667 97.3333L110.333 97.6667L109.667 97.3333z"/>
<path style="fill:#473339; stroke:none;" d="M126 97L127 98L126 97z"/>
<path style="fill:#338f5a; stroke:none;" d="M146 97L147 98L146 97z"/>
<path style="fill:#a5566c; stroke:none;" d="M142 101L145 102L149 98L142 101M151 97L152 98L151 97M26 98L27 99L26 98M61 98L62 99L61 98M78 98L79 99L78 98M82 98L82 99L82 100L85 99L85 98L82 98M87 98L88 99L87 98M90 98L88 101L90 100L89 103L92 100L90 98M111 98L112 99L111 98z"/>
<path style="fill:#473339; stroke:none;" d="M112 98L113 99L112 98z"/>
<path style="fill:#a5566c; stroke:none;" d="M113 98L114 99L113 98z"/>
<path style="fill:#ebe9e2; stroke:none;" d="M122 98L123 99L122 98z"/>
<path style="fill:#a5566c; stroke:none;" d="M126 98L126 99L129 99L126 98M131 98L132 99L131 98M149 98L150 99L149 98z"/>
<path style="fill:#473339; stroke:none;" d="M151 98L152 99L151 98M176 98C172.628 107.251 176.662 112.084 184 118L184 103L177 102L176 98z"/>
<path style="fill:#a5566c; stroke:none;" d="M34 99L35 102L37 102L34 99M62.6667 99.3333L63.3333 99.6667L62.6667 99.3333M71.6667 99.3333L72.3333 99.6667L71.6667 99.3333M80 99L79 101L81 101L80 99M86 99L87 100L86 99z"/>
<path style="fill:#473339; stroke:none;" d="M90 99L91 100L90 99z"/>
<path style="fill:#ebe9e2; stroke:none;" d="M118 99L119 100L118 99z"/>
<path style="fill:#a5566c; stroke:none;" d="M151 99L152 100L151 99z"/>
<path style="fill:#338f5a; stroke:none;" d="M175 99L176 100L175 99z"/>
<path style="fill:#a5566c; stroke:none;" d="M33 100L34 101L33 100z"/>
<path style="fill:#473339; stroke:none;" d="M36.3333 100.667L36.6667 101.333L36.3333 100.667z"/>
<path style="fill:#338f5a; stroke:none;" d="M54 100L55 101L54 100z"/>
<path style="fill:#473339; stroke:none;" d="M64.6667 100.333L65.3333 100.667L64.6667 100.333z"/>
<path style="fill:#a5566c; stroke:none;" d="M70 100L70 104L71 104L70 100M73 100L74 101L73 100z"/>
<path style="fill:#473339; stroke:none;" d="M84 110L84 106L87 107L87 100C83.15 101.94 79.5928 106.787 84 110M89.3333 100.667L89.6667 101.333L89.3333 100.667z"/>
<path style="fill:#ebe9e2; stroke:none;" d="M121 100L122 101L121 100z"/>
<path style="fill:#a5566c; stroke:none;" d="M126 100L127 101L126 100z"/>
<path style="fill:#473339; stroke:none;" d="M147 100L147 102L149 102L147 100M150 100C151.127 102.006 151.873 102.006 153 100L150 100M38 101L45 104L45 103L38 101z"/>
<path style="fill:#a5566c; stroke:none;" d="M39 101L40 102L39 101M51.3333 101.667L51.6667 102.333L51.3333 101.667z"/>
<path style="fill:#473339; stroke:none;" d="M63 102L63 103L66 105L67 105L69 104L68 101L63 102z"/>
<path style="fill:#a5566c; stroke:none;" d="M74 101L75 102L74 101M116 101L117 102L116 101z"/>
<path style="fill:#ebe9e2; stroke:none;" d="M142 101L144 104L144 101L142 101z"/>
<path style="fill:#338f5a; stroke:none;" d="M174 101L175 102L174 101z"/>
<path style="fill:#a5566c; stroke:none;" d="M41.6667 102.333L42.3333 102.667L41.6667 102.333M67 102L68 103L67 102M81.6667 102.333L82.3333 102.667L81.6667 102.333M86 102L87 103L86 102M93 103L93 104L100 103L93 103M101.667 102.333L102.333 102.667L101.667 102.333M118 102L121 108L122 108L118 102M125 102L126 103L125 102M141 102L142 103L141 102z"/>
<path style="fill:#5231a6; stroke:none;" d="M165 102L165 106L163 107L162 107L161 105L159 112L168 112L170 113L174 116L179 124L181 123L185 127L184 129L207 144L207 140L206 139L204 139L203 142L202 142L203 138L189 125L194 133L189 131L189 130L191 130L191 129L189 127L186 127L187 125L185 125L186 123L182 119L179 119L177 117L177 116L180 116L180 115L176 115L174 113L174 112L176 112L176 111L172 111L172 110L175 110L175 109L168 108L168 107L174 108L173 103L171 106L165 102z"/>
<path style="fill:#a5566c; stroke:none;" d="M166 102L171 106L171 102L166 102M173 102L173 107L174 107L173 102M40 103L41 104L40 103M43 104L43 105L48 104L43 104z"/>
<path style="fill:#473339; stroke:none;" d="M56 103L56 104L60 104L56 103z"/>
<path style="fill:#ebe9e2; stroke:none;" d="M64 103L65 104L64 103z"/>
<path style="fill:#a5566c; stroke:none;" d="M75 103L72 104L72 105L76 104L75 103M105 103L105 104L115 105L105 103M142 103L143 104L142 103z"/>
<path style="fill:#473339; stroke:none;" d="M153 103L153 111L154 111L153 103z"/>
<path style="fill:#a5566c; stroke:none;" d="M160.333 103.667L160.667 104.333L160.333 103.667z"/>
<path style="fill:#473339; stroke:none;" d="M47 104L47 105L55 105L47 104z"/>
<path style="fill:#ebe9e2; stroke:none;" d="M57 104L58 105L57 104z"/>
<path style="fill:#473339; stroke:none;" d="M61 104L63 107L61 104z"/>
<path style="fill:#a5566c; stroke:none;" d="M67 106L71 106L67 106M91 104L92 105L91 104z"/>
<path style="fill:#338f5a; stroke:none;" d="M115 104L116 105L115 104z"/>
<path style="fill:#a5566c; stroke:none;" d="M125.333 104.667L125.667 105.333L125.333 104.667M133 104L133 105L136 105L136 104L133 104M138 104L136 107L139 107L138 104M184 104L185 105L184 104z"/>
<path style="fill:#ebe9e2; stroke:none;" d="M66 108L69 109L70 109L69 105L67 105L66 108z"/>
<path style="fill:#473339; stroke:none;" d="M69 105L70 106L69 105z"/>
<path style="fill:#a5566c; stroke:none;" d="M76 105L75 110C78.3628 112.213 77.4143 114.581 76 118L79 112L84 119L79 123L78 123L76 120L75 122L78 126L75 141L82 141L85 136L84 138L85 138L93 133L92 128L93 128L93 130L94 130L91 127L84 133L83 133L82 133L80 131L80 121L91 125L89 120L86 112L84 114L76 109L76 105z"/>
<path style="fill:#473339; stroke:none;" d="M91 105L89 107L89 108L93 105L91 105z"/>
<path style="fill:#338f5a; stroke:none;" d="M116 105L117 106L116 105z"/>
<path style="fill:#473339; stroke:none;" d="M160 105L161 106L160 105M162 105L163 106L162 105z"/>
<path style="fill:#a5566c; stroke:none;" d="M164 105L165 106L164 105M185 105L185 110L191 113L191 114L189 115L194 120L198 120L198 119L185 105z"/>
<path style="fill:#473339; stroke:none;" d="M58 106L59 110L58 106M70.3333 106.667L70.6667 107.333L70.3333 106.667M73 106L74 107L73 106z"/>
<path style="fill:#a5566c; stroke:none;" d="M81 106L82 107L81 106z"/>
<path style="fill:#ebe9e2; stroke:none;" d="M84 106L84 108L86 108L84 106z"/>
<path style="fill:#a5566c; stroke:none;" d="M87 106L88 107L87 106M89.6667 106.333L90.3333 106.667L89.6667 106.333M110 106L112 108L110 106z"/>
<path style="fill:#338f5a; stroke:none;" d="M158 106L159 107L158 106z"/>
<path style="fill:#a5566c; stroke:none;" d="M162 106L163 107L162 106M165 106L165 107L168 107L165 106M168 107L168 108L174 109L174 108L172 106L168 107z"/>
<path style="fill:#5231a6; stroke:none;" d="M185 106L186 107L185 106z"/>
<path style="fill:#a5566c; stroke:none;" d="M73 107L73 111L74 111L73 107M86 107L87 108L86 107M91 107L92 108L91 107z"/>
<path style="fill:#338f5a; stroke:none;" d="M118 107L120 109L118 107z"/>
<path style="fill:#a5566c; stroke:none;" d="M156.667 107.333L157.333 107.667L156.667 107.333z"/>
<path style="fill:#ebe9e2; stroke:none;" d="M158 107L156 111L158 107z"/>
<path style="fill:#a5566c; stroke:none;" d="M159 107L160 108L159 107z"/>
<path style="fill:#5231a6; stroke:none;" d="M184 107L185 108L184 107z"/>
<path style="fill:#ebe9e2; stroke:none;" d="M67.3333 108.667L67.6667 109.333L67.3333 108.667z"/>
<path style="fill:#a5566c; stroke:none;" d="M70.3333 108.667L70.6667 109.333L70.3333 108.667M78 108L79 109L78 108M80 108L80 110L82 110L80 108M84.6667 108.333L85.3333 108.667L84.6667 108.333z"/>
<path style="fill:#338f5a; stroke:none;" d="M113 108L115 110L113 108z"/>
<path style="fill:#473339; stroke:none;" d="M121 108L122 109L121 108z"/>
<path style="fill:#a5566c; stroke:none;" d="M125 108L126 109L125 108z"/>
<path style="fill:#338f5a; stroke:none;" d="M155.333 108.667L155.667 109.333L155.333 108.667z"/>
<path style="fill:#473339; stroke:none;" d="M159 108L160 109L159 108z"/>
<path style="fill:#5231a6; stroke:none;" d="M185 108L186 109L185 108M188 108L189 109L188 108z"/>
<path style="fill:#ebe9e2; stroke:none;" d="M57 109L58 110L57 109z"/>
<path style="fill:#338f5a; stroke:none;" d="M69 109L67 110C68.3571 112.416 70.2392 111.372 69 109z"/>
<path style="fill:#a5566c; stroke:none;" d="M102 109L102 114L99 112L100 116L99 113L100 113L101 117L102 117L103 111L104 111L105 114L106 114L102 109z"/>
<path style="fill:#338f5a; stroke:none;" d="M121 109L120 111L122 111L121 109M138 109L132 113C132 117.672 133.958 132.396 130 135L135 141C134.063 144.834 133.086 148.954 137 151L140 144L138 136L138 135L138 134C140.95 131.415 139.215 127.285 138 124L140 124L139 118L140 118L142 120L142 114L138 109M140 109L141 110L140 109z"/>
<path style="fill:#ebe9e2; stroke:none;" d="M142 109L147 114C143.282 116.271 137.919 124.354 142 128L142 125L145 128L142 129L142 130C147.774 127.217 149.651 119.704 152 114L142 109z"/>
<path style="fill:#473339; stroke:none;" d="M143 109L144 110L143 109z"/>
<path style="fill:#a5566c; stroke:none;" d="M158.667 109.333L159.333 109.667L158.667 109.333M170 109L171 110L170 109M172 110L172 111L176 111L176 112L174 112L174 113L176 115L180 115L180 116L177 116L177 117L180 117L179 119L182 119L186 123L186 127L189 127L191 129L191 130L189 130L189 131L194 133L189 125L203 138L202 142L203 142L204 139L206 139L207 140L207 144L184 129L185 127L181 123L179 124L174 116L168 112C161.544 111.967 160.012 113.149 155 117L155 113L142 130L142 129L145 128L142 125L142 128L140 128C140.529 135.439 141.587 146.858 134 151L129 132L129 126L124 133C125.692 129.021 127.48 126.201 132 126L130 123C133.035 121.35 132.051 116.875 131 114L128 114L129 116L126 115L119 155L119 156L121 160L119 159L123 176L125 176L130 171L130 178L132 178L132 167L136 170L136 181L141 177L142 177C146.885 184.137 166.399 184.527 171 177L172 179L173 179L173 176L174 176L174 178L175 178L174 175L177 177L179 176L177 173L181 173L182 169L182 173L185 168C189.371 165.233 190.562 160.987 191 156L192 156C196.056 162.114 208.348 160.999 215 161L215 157L211 156L211 155L223 157L224 157C222.771 151.263 201.474 154 196 154C192.47 154 188.855 153.008 188 157L187 157L190 147L224 149L225 141L221 141L225 136L222 137L210 135L213 134L213 133L209 134L207 133L202 125L199 126L202 131L185 114L185 119C180.716 115.131 178.388 109.777 172 110z"/>
<path style="fill:#473339; stroke:none;" d="M53 110L54 113L57 111L53 110M68 110L69 111L68 110z"/>
<path style="fill:#ebe9e2; stroke:none;" d="M70 110L71 111L70 110z"/>
<path style="fill:#338f5a; stroke:none;" d="M71 110L72 111L71 110M75 110L78 113L78 112L78 111L75 110z"/>
<path style="fill:#ebe9e2; stroke:none;" d="M76.6667 110.333L77.3333 110.667L76.6667 110.333z"/>
<path style="fill:#473339; stroke:none;" d="M114 110L115 111L114 110z"/>
<path style="fill:#a5566c; stroke:none;" d="M124 110L125 111L124 110M140 110L143 114L140 123L147 114L140 110z"/>
<path style="fill:#473339; stroke:none;" d="M144 110L145 111L144 110z"/>
<path style="fill:#a5566c; stroke:none;" d="M155 110L157 113L155 110z"/>
<path style="fill:#473339; stroke:none;" d="M157 110L156 116L160 110L157 110z"/>
<path style="fill:#5231a6; stroke:none;" d="M184 110L184 115L202 131L201 126L201 125L196 124L195 122L195 121L198 123L199 123L194 120L191 114L191 113L189 111L184 110z"/>
<path style="fill:#473339; stroke:none;" d="M68 112L68 113L75 113L68 112z"/>
<path style="fill:#338f5a; stroke:none;" d="M73 111L74 112L73 111z"/>
<path style="fill:#5231a6; stroke:none;" d="M74 111L75 112L74 111M76 111L77 112L76 111z"/>
<path style="fill:#a5566c; stroke:none;" d="M84 111L85 112L84 111M88 111L88 112L92 112L88 111M114 111L115 112L114 111z"/>
<path style="fill:#473339; stroke:none;" d="M121 111L122 112L121 111z"/>
<path style="fill:#a5566c; stroke:none;" d="M132.333 111.667L132.667 112.333L132.333 111.667z"/>
<path style="fill:#473339; stroke:none;" d="M146 111L147 112L146 111z"/>
<path style="fill:#5231a6; stroke:none;" d="M190 111L191 112L190 111z"/>
<path style="fill:#a5566c; stroke:none;" d="M37.3333 112.667L37.6667 113.333L37.3333 112.667M67.3333 112.667L67.6667 113.333L67.3333 112.667z"/>
<path style="fill:#5231a6; stroke:none;" d="M69 112L70 113L69 112M75 112L76 113L75 112z"/>
<path style="fill:#ebe9e2; stroke:none;" d="M79 112C77.6328 116.726 74.8489 118.385 70 118L70 122L77 122L76 120L77 120L78 123L79 123L84 119C83.6953 115.044 82.7676 113.384 79 112z"/>
<path style="fill:#473339; stroke:none;" d="M115.333 112.667L115.667 113.333L115.333 112.667z"/>
<path style="fill:#a5566c; stroke:none;" d="M121 112L122 113L121 112M130 112L131 113L130 112z"/>
<path style="fill:#ebe9e2; stroke:none;" d="M131 112L132 115L131 112z"/>
<path style="fill:#a5566c; stroke:none;" d="M147.667 112.333L148.333 112.667L147.667 112.333z"/>
<path style="fill:#473339; stroke:none;" d="M149.667 112.333L150.333 112.667L149.667 112.333z"/>
<path style="fill:#ebe9e2; stroke:none;" d="M155.333 112.667L155.667 113.333L155.333 112.667z"/>
<path style="fill:#5231a6; stroke:none;" d="M178 112L179 113L178 112z"/>
<path style="fill:#473339; stroke:none;" d="M191 112L192 113L191 112M50 113L50 117L47 115L47 120L53 114L50 113z"/>
<path style="fill:#338f5a; stroke:none;" d="M66 114C68.9039 117.661 71.3658 118.85 76 118L76 117L73 115C69.7322 115.545 68.3243 115.703 69 113L66 114z"/>
<path style="fill:#5231a6; stroke:none;" d="M72 113L73 114L72 113z"/>
<path style="fill:#338f5a; stroke:none;" d="M73.6667 113.333L74.3333 113.667L73.6667 113.333z"/>
<path style="fill:#ebe9e2; stroke:none;" d="M68 114L68 115L73 115C73.6642 118.985 77.3521 115.458 78 113L68 114z"/>
<path style="fill:#a5566c; stroke:none;" d="M124 113L125 114L124 113z"/>
<path style="fill:#473339; stroke:none;" d="M152 113L153 114L152 113M192 113L194 115L192 113z"/>
<path style="fill:#ebe9e2; stroke:none;" d="M85 114L85 118L85 119C88.7036 118.19 87.3062 115.977 85 114z"/>
<path style="fill:#a5566c; stroke:none;" d="M115 114L116 115L115 114z"/>
<path style="fill:#338f5a; stroke:none;" d="M122 114L122 118L123 118L122 114z"/>
<path style="fill:#ebe9e2; stroke:none;" d="M129 114L130 115L129 114M142 114L143 115L142 114z"/>
<path style="fill:#5231a6; stroke:none;" d="M158 114L159 115L158 114M160 114L159 117L160 114M192 114L193 115L192 114z"/>
<path style="fill:#338f5a; stroke:none;" d="M36 115L36 119L37 119L36 115z"/>
<path style="fill:#a5566c; stroke:none;" d="M116 115L116 123L117 123L116 115z"/>
<path style="fill:#ebe9e2; stroke:none;" d="M127.667 115.333L128.333 115.667L127.667 115.333z"/>
<path style="fill:#473339; stroke:none;" d="M141 115L141 118L142 118L141 115z"/>
<path style="fill:#ebe9e2; stroke:none;" d="M153.667 115.333L154.333 115.667L153.667 115.333z"/>
<path style="fill:#a5566c; stroke:none;" d="M229 115L231 120L232 120L229 115M65 116L65 119L66 119L65 116M67 116L67 122L68 122L67 116z"/>
<path style="fill:#ebe9e2; stroke:none;" d="M126 116L127 117L126 116z"/>
<path style="fill:#338f5a; stroke:none;" d="M153 116L154 117L153 116z"/>
<path style="fill:#ebe9e2; stroke:none;" d="M155.667 116.333L156.333 116.667L155.667 116.333z"/>
<path style="fill:#5231a6; stroke:none;" d="M192 116L193 117L192 116z"/>
<path style="fill:#473339; stroke:none;" d="M194 116L195 117L194 116z"/>
<path style="fill:#a5566c; stroke:none;" d="M98.3333 117.667L98.6667 118.333L98.3333 117.667z"/>
<path style="fill:#ebe9e2; stroke:none;" d="M153 123L153 120L154 124C159.928 116.038 146.487 118.197 153 123z"/>
<path style="fill:#473339; stroke:none;" d="M158 117L159 118L158 117z"/>
<path style="fill:#5231a6; stroke:none;" d="M161 117L162 118L161 117z"/>
<path style="fill:#473339; stroke:none;" d="M195 117L196 118L195 117z"/>
<path style="fill:#a5566c; stroke:none;" d="M69 118L69 130L68 130L68 126L67 126C66.2393 133.239 68.35 139.192 74 144L75 143L68 132L69 132L70 134L69 118M105 118L106 119L105 118M122 118L122 121L123 121L122 118z"/>
<path style="fill:#473339; stroke:none;" d="M139 118L139 123L140 123L139 118M156 118L157 119L156 118z"/>
<path style="fill:#5231a6; stroke:none;" d="M165 118L166 119L165 118M183.667 118.333L184.333 118.667L183.667 118.333z"/>
<path style="fill:#473339; stroke:none;" d="M43 119L44 122L38 125L46 120L43 119z"/>
<path style="fill:#338f5a; stroke:none;" d="M151 119L151 121L153 119L151 119z"/>
<path style="fill:#5231a6; stroke:none;" d="M156 119L158 123L156 119M160 119L160 120L160 121L165 123L160 119M185 119L187 122L185 119z"/>
<path style="fill:#338f5a; stroke:none;" d="M234 119L235 120L234 119z"/>
<path style="fill:#a5566c; stroke:none;" d="M36 120L36 123L37 123L36 120M64 120L64 126L65 126L64 120z"/>
<path style="fill:#ebe9e2; stroke:none;" d="M81 120L82 121L81 120M85 121L85 122L89 122L85 121z"/>
<path style="fill:#a5566c; stroke:none;" d="M104 120L105 121L104 120z"/>
<path style="fill:#338f5a; stroke:none;" d="M153 120L151 123L152 126L155 125L153 120z"/>
<path style="fill:#5231a6; stroke:none;" d="M158 120L159 121L158 120z"/>
<path style="fill:#a5566c; stroke:none;" d="M227 120L228 121L227 120M234 120L235 121L234 120z"/>
<path style="fill:#338f5a; stroke:none;" d="M71 121L71 123L76 122L71 121z"/>
<path style="fill:#a5566c; stroke:none;" d="M99 121L100 122L99 121z"/>
<path style="fill:#ebe9e2; stroke:none;" d="M125 121L126 122L125 121M131 121L132 122L131 121z"/>
<path style="fill:#338f5a; stroke:none;" d="M150 121L151 122L150 121z"/>
<path style="fill:#a5566c; stroke:none;" d="M195 121L195 122L196 124L200 125L195 121M66 122L67 123L66 122M96 122L95 123C97.5907 128.161 100.625 138.619 92 139L92 140L100 138L98 126L100 128L101 128L101 124L101 123L96 122M103 122L102 125L103 122z"/>
<path style="fill:#ebe9e2; stroke:none;" d="M149 122L150 123L149 122z"/>
<path style="fill:#473339; stroke:none;" d="M150 122C150.134 125.251 150.898 126.052 154 127L154 126L151 126L150 122z"/>
<path style="fill:#5231a6; stroke:none;" d="M160 123L160 124L163 124L160 123M169 122L170 123L169 122z"/>
<path style="fill:#a5566c; stroke:none;" d="M226 122L227 123L226 122M232 122L231 127L239 127L239 126L232 122M67.3333 123.667L67.6667 124.333L67.3333 123.667z"/>
<path style="fill:#ebe9e2; stroke:none;" d="M70 123L70 129L75 130L73 132L76 134L75 129L78 126L76 123L70 123M77 123L78 124L77 123M79 123L79 130L77 129C77.0184 134.197 77.3904 137.118 82 140L80 137L83 136L79 123z"/>
<path style="fill:#473339; stroke:none;" d="M98 123L99 124L98 123z"/>
<path style="fill:#a5566c; stroke:none;" d="M115 123L115 135L116 135L115 123z"/>
<path style="fill:#ebe9e2; stroke:none;" d="M130 123L131 124L130 123z"/>
<path style="fill:#473339; stroke:none;" d="M131.333 123.667L131.667 124.333L131.333 123.667z"/>
<path style="fill:#a5566c; stroke:none;" d="M145 123L146 124L145 123z"/>
<path style="fill:#338f5a; stroke:none;" d="M149 123L150 124L149 123M155 123L156 124L155 123z"/>
<path style="fill:#473339; stroke:none;" d="M199 123L200 124L199 123z"/>
<path style="fill:#a5566c; stroke:none;" d="M62 124L62 127L63 127L62 124M92.3333 124.667L92.6667 125.333L92.3333 124.667z"/>
<path style="fill:#473339; stroke:none;" d="M95 124L96 125L95 124z"/>
<path style="fill:#ebe9e2; stroke:none;" d="M97 124L98 125L97 124z"/>
<path style="fill:#473339; stroke:none;" d="M138 124L139 129L140 129L138 124z"/>
<path style="fill:#a5566c; stroke:none;" d="M139 124L140 125L139 124M141 124L142 125L141 124M143 124L145 126L143 124z"/>
<path style="fill:#ebe9e2; stroke:none;" d="M151.333 124.667L151.667 125.333L151.333 124.667z"/>
<path style="fill:#5231a6; stroke:none;" d="M166 124L167 125L166 124z"/>
<path style="fill:#473339; stroke:none;" d="M200 124L201 125L200 124M225 124L224 149L190 147L188 154L225 154L228 149C226.588 143.069 225.284 132.625 230 128L230 127L226 126L226 125L232 125L225 124M37 125L37 127L39 127L37 125z"/>
<path style="fill:#a5566c; stroke:none;" d="M94 125L95 126L94 125z"/>
<path style="fill:#ebe9e2; stroke:none;" d="M124 133L129 126L130 129L131 129L131 125C126.841 126.272 125.08 128.863 124 133M156 125L157 126L156 125M160 125L168 132L168 133L152 131L152 132L166 133L169 138L165 140L168 138C171.885 141.539 174.51 144.402 174.903 150C175.144 153.438 172.825 158.376 175 161L175 162L166 170L151 172L149 170L150 168L150 167L149 167L147 172L155 172C156.103 178.61 170.921 168.864 173 166L170 167L171 164C177.841 164.109 176.375 156.918 176 152L177 152L177 156L178 156L176 148L175 140L179 146L182 145L185 151L186 151L186 143C183.205 143 183.735 141.52 184 139L182 140L183 137L172.999 129.388L160 125z"/>
<path style="fill:#5231a6; stroke:none;" d="M169 125L170 126L169 125z"/>
<path style="fill:#a5566c; stroke:none;" d="M197 125L198 126L197 125z"/>
<path style="fill:#5231a6; stroke:none;" d="M226 125L226 126L230 127L230 128C225.005 131.653 226.415 143.638 228 149L225 152L230 153L229 150L232 148L235 149L238 128L233 129L233 128L235 128L235 127L232 128L226 125z"/>
<path style="fill:#ebe9e2; stroke:none;" d="M234 125L235 126L234 125z"/>
<path style="fill:#a5566c; stroke:none;" d="M65 126L65 130L66 130L65 126z"/>
<path style="fill:#473339; stroke:none;" d="M101 126L101 131L102 131L101 126z"/>
<path style="fill:#a5566c; stroke:none;" d="M102 126L103 127L102 126z"/>
<path style="fill:#473339; stroke:none;" d="M131 126L131 130L132 130L131 126z"/>
<path style="fill:#5231a6; stroke:none;" d="M201 126L202 127L201 126M235 126L236 127L235 126z"/>
<path style="fill:#473339; stroke:none;" d="M39 127L40 128L39 127z"/>
<path style="fill:#a5566c; stroke:none;" d="M55 127L54 132L55 132L55 127M61 127L62 128L61 127z"/>
<path style="fill:#338f5a; stroke:none;" d="M75 127L74 129L75 127z"/>
<path style="fill:#ebe9e2; stroke:none;" d="M153 127L154 128L153 127z"/>
<path style="fill:#a5566c; stroke:none;" d="M164 127L163 129L164 127z"/>
<path style="fill:#5231a6; stroke:none;" d="M202.333 127.667L202.667 128.333L202.333 127.667z"/>
<path style="fill:#a5566c; stroke:none;" d="M225 127L225 130L226 130L225 127z"/>
<path style="fill:#473339; stroke:none;" d="M232 127L233 128L232 127z"/>
<path style="fill:#5231a6; stroke:none;" d="M238 127L239 128L238 127z"/>
<path style="fill:#473339; stroke:none;" d="M40 128L41 129L40 128z"/>
<path style="fill:#a5566c; stroke:none;" d="M84.3333 128.667L84.6667 129.333L84.3333 128.667M96 128L97 129L96 128M102 128L103 129L102 128z"/>
<path style="fill:#338f5a; stroke:none;" d="M113 128L114 129L113 128z"/>
<path style="fill:#ebe9e2; stroke:none;" d="M150 128L147 129L147 131L144 131L146 135L141 133L141 137L144 139L148 136L146 132C148.895 132.376 149.239 134.223 149 137L150 137L150 128z"/>
<path style="fill:#473339; stroke:none;" d="M203 128L204 129L203 128M233 128L233 129L237 129L233 128z"/>
<path style="fill:#338f5a; stroke:none;" d="M41 129L41 132L42 132L41 129M70 129L69 135L75 137L75 130L70 129M75 129L76 130L75 129z"/>
<path style="fill:#a5566c; stroke:none;" d="M95 129L96 130L95 129M100 129L100 134L101 134L100 129z"/>
<path style="fill:#473339; stroke:none;" d="M140 129L141 130L140 129z"/>
<path style="fill:#a5566c; stroke:none;" d="M165 129L166 130L165 129M61 130L61 133L62 133L63 130L61 130z"/>
<path style="fill:#ebe9e2; stroke:none;" d="M67.3333 130.667L67.6667 131.333L67.3333 130.667M70 130L71 131L70 130z"/>
<path style="fill:#a5566c; stroke:none;" d="M94.3333 130.667L94.6667 131.333L94.3333 130.667M112.333 130.667L112.667 131.333L112.333 130.667z"/>
<path style="fill:#473339; stroke:none;" d="M139 130L140 131L139 130z"/>
<path style="fill:#a5566c; stroke:none;" d="M168.333 130.667L168.667 131.333L168.333 130.667z"/>
<path style="fill:#5231a6; stroke:none;" d="M202 131L202 132L209 136L205 133L205 130L202 131z"/>
<path style="fill:#473339; stroke:none;" d="M142.667 131.333L143.333 131.667L142.667 131.333z"/>
<path style="fill:#a5566c; stroke:none;" d="M145 131L146 132L145 131M204 131L205 132L204 131M225 131L226 132L225 131z"/>
<path style="fill:#338f5a; stroke:none;" d="M42 132L42 135L43 135L42 132z"/>
<path style="fill:#ebe9e2; stroke:none;" d="M68 132L68 135L69 135L68 132M85 132L86 133L85 132M89.6667 132.333L90.3333 132.667L89.6667 132.333M129 132L130 133L129 132z"/>
<path style="fill:#473339; stroke:none;" d="M130 132L130 135L132 135L132 132L130 132M134 132L135 133L134 132M157 132L158 133L157 132z"/>
<path style="fill:#a5566c; stroke:none;" d="M167 134L167 135L171 136L171 137L169 139L172 137L173 141L177 139L171 135L172 132L167 134z"/>
<path style="fill:#5231a6; stroke:none;" d="M207 132L208 133L207 132z"/>
<path style="fill:#338f5a; stroke:none;" d="M53 133L54 134L53 133z"/>
<path style="fill:#ebe9e2; stroke:none;" d="M71 133L73 135L71 133z"/>
<path style="fill:#a5566c; stroke:none;" d="M93.6667 133.333L94.3333 133.667L93.6667 133.333z"/>
<path style="fill:#ebe9e2; stroke:none;" d="M170 133L171 134L170 133z"/>
<path style="fill:#a5566c; stroke:none;" d="M194 133L194 135L196 133L194 133z"/>
<path style="fill:#5231a6; stroke:none;" d="M209 133L210 134L209 133z"/>
<path style="fill:#a5566c; stroke:none;" d="M214 133L215 134L214 133M53 134L53 137L54 137L53 134M60 134L61 135L60 134z"/>
<path style="fill:#ebe9e2; stroke:none;" d="M70 134L76 138L76 137L70 134M85 134L86 135L85 134z"/>
<path style="fill:#473339; stroke:none;" d="M138 134L138 136L141 136L141 134L138 134z"/>
<path style="fill:#ebe9e2; stroke:none;" d="M157.333 134.667L157.667 135.333L157.333 134.667z"/>
<path style="fill:#5231a6; stroke:none;" d="M210 134L210 135L222 137L226 134L210 134z"/>
<path style="fill:#a5566c; stroke:none;" d="M223.667 134.333L224.333 134.667L223.667 134.333z"/>
<path style="fill:#338f5a; stroke:none;" d="M43.3333 135.667L43.6667 136.333L43.3333 135.667z"/>
<path style="fill:#ebe9e2; stroke:none;" d="M74 135L75 136L74 135z"/>
<path style="fill:#a5566c; stroke:none;" d="M116 135L116 139L117 139L116 135z"/>
<path style="fill:#ebe9e2; stroke:none;" d="M164 135L165 136L164 135z"/>
<path style="fill:#a5566c; stroke:none;" d="M196 135L196 137L198 135L196 135M237 135L238 136L237 135M56.6667 136.333L57.3333 136.667L56.6667 136.333M59 136L59 138L61 136L59 136z"/>
<path style="fill:#ebe9e2; stroke:none;" d="M69 136L70 137L69 136z"/>
<path style="fill:#a5566c; stroke:none;" d="M73 136L74 137L73 136z"/>
<path style="fill:#ebe9e2; stroke:none;" d="M82 138L85 136L82 138z"/>
<path style="fill:#a5566c; stroke:none;" d="M112 136L113 140L114 140L112 136z"/>
<path style="fill:#473339; stroke:none;" d="M130 136L130 139L131 139L130 136z"/>
<path style="fill:#ebe9e2; stroke:none;" d="M173 136L175 138L173 136z"/>
<path style="fill:#5231a6; stroke:none;" d="M210 136L211 137L210 136z"/>
<path style="fill:#a5566c; stroke:none;" d="M52 137L53 138L52 137z"/>
<path style="fill:#338f5a; stroke:none;" d="M71 137L75 140L71 137z"/>
<path style="fill:#a5566c; stroke:none;" d="M72 137L73 138L72 137M89 137L90 138L89 137z"/>
<path style="fill:#473339; stroke:none;" d="M136 137L137 138L136 137z"/>
<path style="fill:#ebe9e2; stroke:none;" d="M151 137L152 144L153 144L151 137z"/>
<path style="fill:#a5566c; stroke:none;" d="M198.333 137.667L198.667 138.333L198.333 137.667z"/>
<path style="fill:#5231a6; stroke:none;" d="M215 137L216 138L215 137M220 137L221 138L220 137M225 137L221 140L221 141C223.891 140.872 225.688 140.13 225 137z"/>
<path style="fill:#338f5a; stroke:none;" d="M44.3333 138.667L44.6667 139.333L44.3333 138.667M52 138L52 142L53 142L52 138M57 138L56 142L58 141L58 142L55 144L52 161L60 168C70.9701 166.11 77.9028 158.009 79 147L80 147L80 153L90 157L86 148L85 148L84 150L82 147L84 144L83 142C79.544 142.967 78.0935 144.383 78 148L73 144C70.5425 144.453 69 144.833 69 142L65 142L65 139L63 140L63 138L57 138z"/>
<path style="fill:#473339; stroke:none;" d="M59 138L60 139L59 138M61 138L62 139L61 138M83 138L84 139L83 138z"/>
<path style="fill:#ebe9e2; stroke:none;" d="M140 138L141 139L140 138z"/>
<path style="fill:#a5566c; stroke:none;" d="M200 138L200 140L202 138L200 138M237 138L238 139L237 138z"/>
<path style="fill:#473339; stroke:none;" d="M63 139L64 140L63 139z"/>
<path style="fill:#ebe9e2; stroke:none;" d="M76 139L76 140L79 140L76 139z"/>
<path style="fill:#a5566c; stroke:none;" d="M85.6667 139.333L86.3333 139.667L85.6667 139.333M90 139L89 141L91 141L90 139M115 139L115 142L116 142L115 139M117 139L118 140L117 139z"/>
<path style="fill:#473339; stroke:none;" d="M153 139L154 140L153 139z"/>
<path style="fill:#ebe9e2; stroke:none;" d="M173 139L174 140L173 139M224 139L225 140L224 139z"/>
<path style="fill:#473339; stroke:none;" d="M236 139L237 140L236 139M56 140L57 141L56 140z"/>
<path style="fill:#ebe9e2; stroke:none;" d="M72 140L72 141L75 141L72 140z"/>
<path style="fill:#473339; stroke:none;" d="M87 140L88 141L87 140z"/>
<path style="fill:#a5566c; stroke:none;" d="M100 140L103 143L100 140z"/>
<path style="fill:#338f5a; stroke:none;" d="M113 140L114 141L113 140z"/>
<path style="fill:#473339; stroke:none;" d="M132 140L133 141L132 140M160 140L161 141L160 140z"/>
<path style="fill:#a5566c; stroke:none;" d="M178.667 140.333L179.333 140.667L178.667 140.333M205.333 140.667L205.667 141.333L205.333 140.667z"/>
<path style="fill:#5231a6; stroke:none;" d="M208 140L211 143L208 140M211 140L216 143L211 140M216 140L221 143C220.421 141.09 220.015 139.666 219 142L216 140z"/>
<path style="fill:#338f5a; stroke:none;" d="M45 141L46 142L45 141z"/>
<path style="fill:#473339; stroke:none;" d="M57.3333 141.667L57.6667 142.333L57.3333 141.667M65.6667 141.333L66.3333 141.667L65.6667 141.333M74 141L75 142L74 141z"/>
<path style="fill:#338f5a; stroke:none;" d="M97.6667 141.333L98.3333 141.667L97.6667 141.333M118 141L119 142L118 141z"/>
<path style="fill:#473339; stroke:none;" d="M134.333 141.667L134.667 142.333L134.333 141.667M139 141L140 142L139 141z"/>
<path style="fill:#ebe9e2; stroke:none;" d="M149 141L150 142L149 141z"/>
<path style="fill:#473339; stroke:none;" d="M153 141L155 145L153 141M158 141L159 142L158 141z"/>
<path style="fill:#a5566c; stroke:none;" d="M213 141L214 142L213 141z"/>
<path style="fill:#473339; stroke:none;" d="M236 141L236 147L237 147L236 141M67 142L68 143L67 142z"/>
<path style="fill:#a5566c; stroke:none;" d="M118 142L118 148L119 148L118 142z"/>
<path style="fill:#ebe9e2; stroke:none;" d="M124 148L128 142C124.679 143.099 124.263 144.59 124 148M133 142L134 143L133 142z"/>
<path style="fill:#473339; stroke:none;" d="M157 142L155 146L157 142z"/>
<path style="fill:#a5566c; stroke:none;" d="M174 142L175 143L174 142M180.333 142.667L180.667 143.333L180.333 142.667z"/>
<path style="fill:#5231a6; stroke:none;" d="M223 142L224 143L223 142z"/>
<path style="fill:#473339; stroke:none;" d="M233 142L234 143L233 142z"/>
<path style="fill:#338f5a; stroke:none;" d="M52 143L53 144L52 143z"/>
<path style="fill:#473339; stroke:none;" d="M56 143L57 144L56 143M68 143L68 144L72 145L72 144L68 143z"/>
<path style="fill:#a5566c; stroke:none;" d="M70 143L71 144L70 143z"/>
<path style="fill:#473339; stroke:none;" d="M79 143L80 144L79 143M82 143L83 144L82 143z"/>
<path style="fill:#5231a6; stroke:none;" d="M225.333 143.667L225.667 144.333L225.333 143.667z"/>
<path style="fill:#473339; stroke:none;" d="M138 144L139 145L138 144z"/>
<path style="fill:#ebe9e2; stroke:none;" d="M139 144L140 145L139 144z"/>
<path style="fill:#a5566c; stroke:none;" d="M175 144L176 145L175 144M183 144L184 145L183 144z"/>
<path style="fill:#5231a6; stroke:none;" d="M210 144L211 145L210 144M212 144L213 145L212 144M215 144L216 145L215 144M218 144L219 145L218 144M220 144L221 145L220 144z"/>
<path style="fill:#a5566c; stroke:none;" d="M51 145L52 146L51 145z"/>
<path style="fill:#473339; stroke:none;" d="M72 145L72 146L78 148L78 147L72 145z"/>
<path style="fill:#a5566c; stroke:none;" d="M74 145L75 146L74 145M114 145L115 146L114 145M116 145L117 146L116 145z"/>
<path style="fill:#ebe9e2; stroke:none;" d="M147 145L142 148C145.229 153.255 151.057 150.387 147 145M151 145L152 146L151 145z"/>
<path style="fill:#473339; stroke:none;" d="M233.333 145.667L233.667 146.333L233.333 145.667z"/>
<path style="fill:#338f5a; stroke:none;" d="M45 146L46 147L45 146z"/>
<path style="fill:#473339; stroke:none;" d="M78 146L79 147L78 146M82 147L84 150L85 150L84 146L82 147z"/>
<path style="fill:#338f5a; stroke:none;" d="M116 146L117 147L116 146z"/>
<path style="fill:#473339; stroke:none;" d="M157 146L158 153L159 153L159 150L163 150L163 149L160 149L161 146L157 146z"/>
<path style="fill:#a5566c; stroke:none;" d="M182 146L183 147L182 146z"/>
<path style="fill:#ebe9e2; stroke:none;" d="M186 146L187 147L186 146z"/>
<path style="fill:#473339; stroke:none;" d="M187 146L188 147L187 146z"/>
<path style="fill:#a5566c; stroke:none;" d="M237 146L238 147L237 146z"/>
<path style="fill:#473339; stroke:none;" d="M79 147C77.1205 155.827 71.425 167.006 61 167L61 168L64 168C64 171.909 63.0815 177.223 64.6034 180.891C69.1055 191.742 89.1268 182.791 97 187C105.237 180.822 101.878 177.635 99 169C98.129 166.387 100.409 167.852 101 168L101 167L98 167C96.1907 160.555 87.0889 150.682 80 153L79 147z"/>
<path style="fill:#338f5a; stroke:none;" d="M113 147L114 148L113 147z"/>
<path style="fill:#473339; stroke:none;" d="M134 147L135 148L134 147z"/>
<path style="fill:#ebe9e2; stroke:none;" d="M156 147L157 148L156 147M170 147L171 148L170 147z"/>
<path style="fill:#5231a6; stroke:none;" d="M207.667 147.333L208.333 147.667L207.667 147.333M210 147L211 148L210 147M218 147L218 148L221 148L218 147M224 147L225 148L224 147z"/>
<path style="fill:#a5566c; stroke:none;" d="M235 147L235 148L235 149L238 149L238 148L235 147z"/>
<path style="fill:#338f5a; stroke:none;" d="M45 148L46 153L47 153L45 148z"/>
<path style="fill:#a5566c; stroke:none;" d="M51.3333 148.667L51.6667 149.333L51.3333 148.667z"/>
<path style="fill:#473339; stroke:none;" d="M81 148L82 149L81 148z"/>
<path style="fill:#338f5a; stroke:none;" d="M105.333 148.667L105.667 149.333L105.333 148.667z"/>
<path style="fill:#a5566c; stroke:none;" d="M117 148L117 151L118 151L117 148z"/>
<path style="fill:#473339; stroke:none;" d="M137.333 148.667L137.667 149.333L137.333 148.667M150 148L151 149L150 148z"/>
<path style="fill:#ebe9e2; stroke:none;" d="M151 148L152 153L153 153L153 150L154 150L155 152L156 148L151 148z"/>
<path style="fill:#a5566c; stroke:none;" d="M194 148L195 149L194 148M217 148L218 149L217 148z"/>
<path style="fill:#473339; stroke:none;" d="M232 148L233 149L232 148z"/>
<path style="fill:#5231a6; stroke:none;" d="M236 148L237 149L236 148z"/>
<path style="fill:#338f5a; stroke:none;" d="M112 149L113 150L112 149z"/>
<path style="fill:#ebe9e2; stroke:none;" d="M157 149L158 150L157 149z"/>
<path style="fill:#a5566c; stroke:none;" d="M229 150L233 154L234 152L234 149L229 150z"/>
<path style="fill:#473339; stroke:none;" d="M73 152L72 156L78 151L73 152z"/>
<path style="fill:#a5566c; stroke:none;" d="M111 150L112 151L111 150z"/>
<path style="fill:#473339; stroke:none;" d="M134 150L135 151L134 150z"/>
<path style="fill:#a5566c; stroke:none;" d="M176 150L177 151L176 150z"/>
<path style="fill:#ebe9e2; stroke:none;" d="M187 150L187 157L188 157L187 150z"/>
<path style="fill:#a5566c; stroke:none;" d="M198 150L198 151L213 151L198 150M214 150L214 151L217 151L214 150M218.667 150.333L219.333 150.667L218.667 150.333M222 150L223 151L222 150M50 151L50 154L51 154L50 151z"/>
<path style="fill:#473339; stroke:none;" d="M54 151L55 152L54 151z"/>
<path style="fill:#338f5a; stroke:none;" d="M104 151L104 154L105 154L104 151z"/>
<path style="fill:#a5566c; stroke:none;" d="M110.333 151.667L110.667 152.333L110.333 151.667M116 151L116 155L117 155L116 151M237.333 151.667L237.667 152.333L237.333 151.667M225 152L226 153L225 152z"/>
<path style="fill:#473339; stroke:none;" d="M226 152L226 153L229 153L226 152M232 152L233 153L232 152z"/>
<path style="fill:#a5566c; stroke:none;" d="M77 158L86 156C82.3663 152.411 79.3966 153.898 77 158z"/>
<path style="fill:#ebe9e2; stroke:none;" d="M125 153L123 159L124 159L125 153z"/>
<path style="fill:#338f5a; stroke:none;" d="M46 154L47 155L46 154M50.3333 154.667L50.6667 155.333L50.3333 154.667z"/>
<path style="fill:#a5566c; stroke:none;" d="M110.333 154.667L110.667 155.333L110.333 154.667z"/>
<path style="fill:#473339; stroke:none;" d="M151 155L150 161L151 161L156 158L157 158L160 156L151 155z"/>
<path style="fill:#ebe9e2; stroke:none;" d="M185 154L186 155L185 154M204.667 154.333L205.333 154.667L204.667 154.333z"/>
<path style="fill:#a5566c; stroke:none;" d="M235 154L236 155L235 154M107 155L108 156L107 155M115 155L116 159L117 159L115 155z"/>
<path style="fill:#ebe9e2; stroke:none;" d="M150 155L151 156L150 155M169 155L169 156L172 157L169 155z"/>
<path style="fill:#a5566c; stroke:none;" d="M233 155L232 157L233 155z"/>
<path style="fill:#338f5a; stroke:none;" d="M46 156L46 164L47 164L46 156z"/>
<path style="fill:#a5566c; stroke:none;" d="M50 156L50 163L51 163L50 156z"/>
<path style="fill:#338f5a; stroke:none;" d="M102 156L103 157L102 156z"/>
<path style="fill:#473339; stroke:none;" d="M120 156L121 157L120 156M161.667 156.333L162.333 156.667L161.667 156.333M191 156L192 157L191 156z"/>
<path style="fill:#a5566c; stroke:none;" d="M106 157L107 158L106 157M109 157L110 158L109 157z"/>
<path style="fill:#338f5a; stroke:none;" d="M92 158L93 159L92 158M101 158L102 159L101 158z"/>
<path style="fill:#473339; stroke:none;" d="M164 158L165 159L164 158z"/>
<path style="fill:#a5566c; stroke:none;" d="M175 158L176 159L175 158M217 159L217 160L226 160L217 159M231 158L232 159L231 158z"/>
<path style="fill:#338f5a; stroke:none;" d="M93 159L94 160L93 159z"/>
<path style="fill:#a5566c; stroke:none;" d="M105 159L103 164L104 164L105 159M108 159L109 160L108 159z"/>
<path style="fill:#473339; stroke:none;" d="M157 159L160 162L157 159z"/>
<path style="fill:#ebe9e2; stroke:none;" d="M186.333 159.667L186.667 160.333L186.333 159.667z"/>
<path style="fill:#338f5a; stroke:none;" d="M94 160L95 161L94 160M100 160L99 163L100 160M107 160L108 161L107 160z"/>
<path style="fill:#a5566c; stroke:none;" d="M110 160L110 164L111 164L110 160M115.333 160.667L115.667 161.333L115.333 160.667z"/>
<path style="fill:#ebe9e2; stroke:none;" d="M143 162L143 167L147 167L149 160L143 162z"/>
<path style="fill:#338f5a; stroke:none;" d="M190 160L191 161L190 160z"/>
<path style="fill:#a5566c; stroke:none;" d="M227 160L228 161L227 160M52 161L53 162L52 161z"/>
<path style="fill:#338f5a; stroke:none;" d="M95 161L96 162L95 161M52 162L52 165L53 165L52 162z"/>
<path style="fill:#473339; stroke:none;" d="M56 162L57 163L56 162z"/>
<path style="fill:#338f5a; stroke:none;" d="M96 162L97 163L96 162M114 162L114 165C116.006 163.873 116.006 163.127 114 162z"/>
<path style="fill:#ebe9e2; stroke:none;" d="M126 162L124 168L129 162L126 162z"/>
<path style="fill:#338f5a; stroke:none;" d="M50.3333 163.667L50.6667 164.333L50.3333 163.667M97 163L98 164L97 163z"/>
<path style="fill:#a5566c; stroke:none;" d="M106 163L107 164L106 163M114 163L115 164L114 163z"/>
<path style="fill:#473339; stroke:none;" d="M134 163L135 164L134 163z"/>
<path style="fill:#a5566c; stroke:none;" d="M172 163L173 164L172 163z"/>
<path style="fill:#ebe9e2; stroke:none;" d="M185 163L186 164L185 163z"/>
<path style="fill:#a5566c; stroke:none;" d="M46 164L47 165L46 164M52 167L51 184L57 183L56 180L59 182L59 179L62 177L63 177L63 181L64 181L61 173L63 169C58.7231 166.392 56.722 164.264 52 167z"/>
<path style="fill:#473339; stroke:none;" d="M57 164L58 165L57 164z"/>
<path style="fill:#338f5a; stroke:none;" d="M98 164L98 167L100 166L100 165L98 164M103 164L104 165L103 164z"/>
<path style="fill:#a5566c; stroke:none;" d="M144 164L145 165L144 164z"/>
<path style="fill:#ebe9e2; stroke:none;" d="M165 164L166 165L165 164z"/>
<path style="fill:#338f5a; stroke:none;" d="M46.3333 165.667L46.6667 166.333L46.3333 165.667z"/>
<path style="fill:#a5566c; stroke:none;" d="M50 165L50 168L51 168L50 165z"/>
<path style="fill:#338f5a; stroke:none;" d="M102 165L103 166L102 165M105 168L106 168L109 167L105 168z"/>
<path style="fill:#a5566c; stroke:none;" d="M110 165L111 166L110 165M114.333 165.667L114.667 166.333L114.333 165.667M116 165L117 166L116 165M119 165L118 168L119 165z"/>
<path style="fill:#ebe9e2; stroke:none;" d="M131 165L129 168L131 165z"/>
<path style="fill:#473339; stroke:none;" d="M133 165L135 167L135 165L133 165z"/>
<path style="fill:#ebe9e2; stroke:none;" d="M166 165L167 166L166 165M184 165L182 169L183 169L184 165z"/>
<path style="fill:#473339; stroke:none;" d="M59 166L60 167L59 166z"/>
<path style="fill:#ebe9e2; stroke:none;" d="M133 166L134 167L133 166z"/>
<path style="fill:#473339; stroke:none;" d="M151 166L152 167L151 166M159 166L160 167L159 166M167 166L168 167L167 166z"/>
<path style="fill:#a5566c; stroke:none;" d="M46 167L47 168L46 167z"/>
<path style="fill:#ebe9e2; stroke:none;" d="M59 167L60 168L59 167z"/>
<path style="fill:#338f5a; stroke:none;" d="M99 167C100.667 176.381 102.766 178.221 98 187L106 186L105 184L110 183L108 185L108 186L111 183L108 183L108 181L106 182L106 180L104 181L106 178L105 170L102 167L99 167z"/>
<path style="fill:#a5566c; stroke:none;" d="M110 167L111 168L110 167M115 167L116 168L115 167z"/>
<path style="fill:#ebe9e2; stroke:none;" d="M137 167L139 175L144 171L137 167z"/>
<path style="fill:#a5566c; stroke:none;" d="M169 167L168 169L169 167z"/>
<path style="fill:#473339; stroke:none;" d="M184 167L185 168L184 167M186 167L187 168L186 167z"/>
<path style="fill:#338f5a; stroke:none;" d="M46.3333 168.667L46.6667 169.333L46.3333 168.667z"/>
<path style="fill:#ebe9e2; stroke:none;" d="M53 168L54 169L53 168M63 168L63 174L64 174L63 168z"/>
<path style="fill:#473339; stroke:none;" d="M102 168L103 169L102 168z"/>
<path style="fill:#a5566c; stroke:none;" d="M114.333 168.667L114.667 169.333L114.333 168.667z"/>
<path style="fill:#338f5a; stroke:none;" d="M118 168L118 171L119 171L118 168z"/>
<path style="fill:#473339; stroke:none;" d="M148 168L149 169L148 168z"/>
<path style="fill:#ebe9e2; stroke:none;" d="M157 168L158 169L157 168z"/>
<path style="fill:#473339; stroke:none;" d="M185 168L186 169L185 168z"/>
<path style="fill:#338f5a; stroke:none;" d="M49 169L50 170L49 169z"/>
<path style="fill:#5231a6; stroke:none;" d="M83 172L88 173L87 169L83 172z"/>
<path style="fill:#473339; stroke:none;" d="M103 169L104 170L103 169M149.667 169.333L150.333 169.667L149.667 169.333z"/>
<path style="fill:#ebe9e2; stroke:none;" d="M158 169L159 170L158 169M181 169L180 172L181 169z"/>
<path style="fill:#338f5a; stroke:none;" d="M45.3333 170.667L45.6667 171.333L45.3333 170.667z"/>
<path style="fill:#5231a6; stroke:none;" d="M96 170C93.786 174.478 93.3594 177.883 88 179L87 183C97.7755 184.332 101.213 182.783 99 172L96 170z"/>
<path style="fill:#338f5a; stroke:none;" d="M110.333 170.667L110.667 171.333L110.333 170.667z"/>
<path style="fill:#473339; stroke:none;" d="M135 170L136 171L135 170M157 170L158 171L157 170z"/>
<path style="fill:#a5566c; stroke:none;" d="M164 170L165 171L164 170M166 170L167 171L166 170z"/>
<path style="fill:#473339; stroke:none;" d="M182 170L183 171L182 170z"/>
<path style="fill:#338f5a; stroke:none;" d="M48 171L49 172L48 171z"/>
<path style="fill:#473339; stroke:none;" d="M52 171L53 172L52 171M56 171L57 172L56 171M104 171L105 172L104 171z"/>
<path style="fill:#ebe9e2; stroke:none;" d="M130 184L130 171C124.124 173.988 124.319 180.822 130 184z"/>
<path style="fill:#a5566c; stroke:none;" d="M162 171L163 172L162 171z"/>
<path style="fill:#473339; stroke:none;" d="M181.333 171.667L181.667 172.333L181.333 171.667z"/>
<path style="fill:#a5566c; stroke:none;" d="M44 172L45 173L44 172M47.3333 172.667L47.6667 173.333L47.3333 172.667z"/>
<path style="fill:#ebe9e2; stroke:none;" d="M51 172L52 173L51 172z"/>
<path style="fill:#473339; stroke:none;" d="M61 172L62 173L61 172M105 172L105 176L106 176L105 172z"/>
<path style="fill:#a5566c; stroke:none;" d="M113 172L114 173L113 172z"/>
<path style="fill:#473339; stroke:none;" d="M147 172L148 173L147 172z"/>
<path style="fill:#a5566c; stroke:none;" d="M157 172L158 173L157 172z"/>
<path style="fill:#ebe9e2; stroke:none;" d="M179 172L177 173L177 174L179 172z"/>
<path style="fill:#a5566c; stroke:none;" d="M43 173L44 174L43 173z"/>
<path style="fill:#473339; stroke:none;" d="M96 173L97 174L96 173z"/>
<path style="fill:#a5566c; stroke:none;" d="M109 173L110 174L109 173z"/>
<path style="fill:#473339; stroke:none;" d="M145 173L142 177L145 173M149 173L150 174L149 173M178 175L181 173L178 175z"/>
<path style="fill:#338f5a; stroke:none;" d="M42 174L43 175L42 174z"/>
<path style="fill:#ebe9e2; stroke:none;" d="M50 174L51 175L50 174z"/>
<path style="fill:#473339; stroke:none;" d="M51 174L52 175L51 174z"/>
<path style="fill:#338f5a; stroke:none;" d="M112.333 174.667L112.667 175.333L112.333 174.667z"/>
<path style="fill:#a5566c; stroke:none;" d="M113 174L113 175L116 175L113 174z"/>
<path style="fill:#338f5a; stroke:none;" d="M117 174L118 175L117 174z"/>
<path style="fill:#473339; stroke:none;" d="M154.667 174.333L155.333 174.667L154.667 174.333M158.667 174.333L159.333 174.667L158.667 174.333z"/>
<path style="fill:#ebe9e2; stroke:none;" d="M176 174L177 175L176 174z"/>
<path style="fill:#a5566c; stroke:none;" d="M41 175L42 176L41 175M46 175L47 176L46 175z"/>
<path style="fill:#ebe9e2; stroke:none;" d="M60 175L62 177L62 175L60 175M174.667 175.333L175.333 175.667L174.667 175.333z"/>
<path style="fill:#473339; stroke:none;" d="M177 175L178 176L177 175z"/>
<path style="fill:#a5566c; stroke:none;" d="M40 176L41 177L40 176z"/>
<path style="fill:#338f5a; stroke:none;" d="M107.333 176.667L107.667 177.333L107.333 176.667z"/>
<path style="fill:#a5566c; stroke:none;" d="M112 176L113 177L112 176z"/>
<path style="fill:#338f5a; stroke:none;" d="M124 176L125 179L126 179L126 176L124 176z"/>
<path style="fill:#ebe9e2; stroke:none;" d="M173 176L174 177L173 176z"/>
<path style="fill:#473339; stroke:none;" d="M175 176L176 177L175 176z"/>
<path style="fill:#a5566c; stroke:none;" d="M46.3333 177.667L46.6667 178.333L46.3333 177.667z"/>
<path style="fill:#338f5a; stroke:none;" d="M48 177L49 178L48 177z"/>
<path style="fill:#473339; stroke:none;" d="M104 177L104 181L105 181L104 177z"/>
<path style="fill:#338f5a; stroke:none;" d="M112 177L112 180L113 180L112 177z"/>
<path style="fill:#473339; stroke:none;" d="M144 177L144 178L150 180L150 179L144 177z"/>
<path style="fill:#ebe9e2; stroke:none;" d="M171 177L172 178L171 177z"/>
<path style="fill:#473339; stroke:none;" d="M173 177L174 178L173 177z"/>
<path style="fill:#338f5a; stroke:none;" d="M39 178L40 179L39 178z"/>
<path style="fill:#473339; stroke:none;" d="M50 178L51 179L50 178z"/>
<path style="fill:#ebe9e2; stroke:none;" d="M58 178L59 179L58 178z"/>
<path style="fill:#473339; stroke:none;" d="M130 178L131 179L130 178z"/>
<path style="fill:#ebe9e2; stroke:none;" d="M144 178L145 179L144 178z"/>
<path style="fill:#473339; stroke:none;" d="M166 178L167 179L166 178z"/>
<path style="fill:#ebe9e2; stroke:none;" d="M169 178L170 179L169 178z"/>
<path style="fill:#473339; stroke:none;" d="M171 178L172 179L171 178z"/>
<path style="fill:#a5566c; stroke:none;" d="M40 179L40 180L43 180L40 179M44 179L45 180L44 179z"/>
<path style="fill:#338f5a; stroke:none;" d="M106 179L107 180L106 179z"/>
<path style="fill:#a5566c; stroke:none;" d="M122 179L123 180L122 179z"/>
<path style="fill:#473339; stroke:none;" d="M120 180L123 184L122 185L120 182L116 185L131 186L125 179L120 180z"/>
<path style="fill:#338f5a; stroke:none;" d="M130 179L130 184L131 184L130 179z"/>
<path style="fill:#473339; stroke:none;" d="M136 181L137 185L133 185L133 186C137.184 187.236 141.25 187.813 144 184L139 186L143 180L136 181z"/>
<path style="fill:#338f5a; stroke:none;" d="M140 179L141 180L140 179z"/>
<path style="fill:#ebe9e2; stroke:none;" d="M166 179L167 180L166 179z"/>
<path style="fill:#473339; stroke:none;" d="M56 180L58 182L56 180M58 180L59 181L58 180z"/>
<path style="fill:#338f5a; stroke:none;" d="M108.667 180.333L109.333 180.667L108.667 180.333z"/>
<path style="fill:#a5566c; stroke:none;" d="M110 180L111 181L110 180z"/>
<path style="fill:#338f5a; stroke:none;" d="M111 180L112 181L111 180z"/>
<path style="fill:#473339; stroke:none;" d="M152 180L152 181L158 181L152 180M50 181L51 182L50 181z"/>
<path style="fill:#ebe9e2; stroke:none;" d="M56 181L57 182L56 181z"/>
<path style="fill:#473339; stroke:none;" d="M106 181L107 182L106 181z"/>
<path style="fill:#338f5a; stroke:none;" d="M117 181L116 184L117 181z"/>
<path style="fill:#a5566c; stroke:none;" d="M119.667 181.333L120.333 181.667L119.667 181.333M126 181L127 182L126 181z"/>
<path style="fill:#473339; stroke:none;" d="M51 182L52 183L51 182z"/>
<path style="fill:#a5566c; stroke:none;" d="M64 182L65 183L64 182z"/>
<path style="fill:#473339; stroke:none;" d="M108 182L109 183L108 182z"/>
<path style="fill:#a5566c; stroke:none;" d="M118.333 182.667L118.667 183.333L118.333 182.667z"/>
<path style="fill:#338f5a; stroke:none;" d="M120.333 182.667L120.667 183.333L120.333 182.667z"/>
<path style="fill:#ebe9e2; stroke:none;" d="M121.333 182.667L121.667 183.333L121.333 182.667z"/>
<path style="fill:#338f5a; stroke:none;" d="M135 182L133 185L137 183L135 182z"/>
<path style="fill:#a5566c; stroke:none;" d="M138.333 182.667L138.667 183.333L138.333 182.667z"/>
<path style="fill:#338f5a; stroke:none;" d="M142 182L144 184L144 182L142 182z"/>
<path style="fill:#a5566c; stroke:none;" d="M54 183L55 184L54 183M65 183L66 184L65 183z"/>
<path style="fill:#473339; stroke:none;" d="M109 183L105 184L105 185L109 183z"/>
<path style="fill:#a5566c; stroke:none;" d="M122 183L123 184L122 183z"/>
<path style="fill:#ebe9e2; stroke:none;" d="M140 185L143 183L140 185z"/>
<path style="fill:#a5566c; stroke:none;" d="M67 184L68 185L67 184z"/>
<path style="fill:#5231a6; stroke:none;" d="M75 184L76 185L75 184M82.6667 184.333L83.3333 184.667L82.6667 184.333z"/>
<path style="fill:#a5566c; stroke:none;" d="M87 184L88 185L87 184M115 184L116 185L115 184M121 184L122 185L121 184z"/>
<path style="fill:#ebe9e2; stroke:none;" d="M136 184L137 185L136 184z"/>
<path style="fill:#338f5a; stroke:none;" d="M139 184L140 185L139 184z"/>
<path style="fill:#a5566c; stroke:none;" d="M142 184L143 185L142 184M72 185L73 186L72 185M77 185L78 186L77 185M86 185L87 186L86 185M116 185L117 186L116 185M139 185L140 186L139 185M143 185L144 186L143 185M84 186L85 187L84 186M136 187L136 188L141 188L136 187z"/>
</svg>
